<?xml version="1.0" encoding="UTF-8"?><svg id="Layer_1" xmlns="http://www.w3.org/2000/svg" width="4684" height="4275.36" xmlns:xlink="http://www.w3.org/1999/xlink" viewBox="0 0 4684 4275.36"><defs><style>.cls-1{fill:url(#linear-gradient-2);}.cls-2{fill:url(#radial-gradient-7);}.cls-3{fill:url(#radial-gradient-10);}.cls-4{fill:#80c242;}.cls-5{fill:#fff;}.cls-6{fill:url(#linear-gradient-11);}.cls-6,.cls-7,.cls-8{mix-blend-mode:multiply;}.cls-9{fill:#4f6971;}.cls-10{fill:url(#radial-gradient-8);}.cls-11{mask:url(#mask-2);}.cls-12{fill:url(#linear-gradient-6);}.cls-13{fill:url(#radial-gradient-5);}.cls-14{fill:url(#radial-gradient-4);}.cls-15{fill:#494d52;}.cls-16{fill:#c4d4d6;}.cls-17{fill:#254d57;}.cls-18{mask:url(#mask-3);}.cls-19{fill:#142a30;}.cls-20{fill:url(#radial-gradient-6);}.cls-21{fill:#6a6c73;}.cls-22{fill:url(#linear-gradient-10);}.cls-23{fill:url(#radial-gradient);}.cls-24{mask:url(#mask-5);}.cls-25{fill:#cde1ef;}.cls-26{fill:#63656b;}.cls-7{fill:url(#linear-gradient-9);}.cls-27{fill:#eaeaea;}.cls-28{filter:url(#luminosity-noclip-4);}.cls-29{fill:#9fa3ac;}.cls-30{filter:url(#luminosity-noclip-6);}.cls-31{mask:url(#mask-4);}.cls-32{fill:url(#linear-gradient-5);}.cls-33{fill:url(#radial-gradient-2);}.cls-34{fill:url(#radial-gradient-3);}.cls-35{fill:#9cbabc;}.cls-36{fill:#07282f;}.cls-37{filter:url(#luminosity-noclip-2);}.cls-38{mask:url(#mask-1);}.cls-39{mask:url(#mask);}.cls-40{fill:#1e3f47;}.cls-41{fill:url(#linear-gradient-3);}.cls-8{fill:url(#linear-gradient-7);}.cls-42{fill:url(#linear-gradient);}.cls-43{fill:#a3c4c6;}.cls-44{fill:#b1c0c1;}.cls-45{fill:#071f24;}.cls-46{fill:#777a82;}.cls-47{fill:#9298a4;}.cls-48{fill:url(#linear-gradient-4);}.cls-49{fill:url(#radial-gradient-9);}.cls-50{fill:url(#linear-gradient-8);}.cls-51{fill:url(#linear-gradient-12);}.cls-52{fill:url(#linear-gradient-13);}</style><linearGradient id="linear-gradient" x1="-898.05" y1="2600.76" x2="-150.1" y2="2600.76" gradientTransform="translate(1256.85) rotate(-180) scale(1 -1)" gradientUnits="userSpaceOnUse"><stop offset="0" stop-color="#839d9e"/><stop offset="1" stop-color="#98b6b7"/></linearGradient><radialGradient id="radial-gradient" cx="998.95" cy="1990.38" fx="998.95" fy="1990.38" r="418.26" gradientTransform="translate(254.54 782.86) rotate(-7.38)" gradientUnits="userSpaceOnUse"><stop offset="0" stop-color="#fff"/><stop offset="1" stop-color="#bfdcee"/></radialGradient><radialGradient id="radial-gradient-2" cx="710.76" cy="1271.13" fx="710.76" fy="1271.13" r="626.71" xlink:href="#radial-gradient"/><linearGradient id="linear-gradient-2" x1="1168.12" y1="2291.01" x2="1502.47" y2="2291.01" gradientTransform="matrix(1, 0, 0, 1, 0, 0)" gradientUnits="userSpaceOnUse"><stop offset="0" stop-color="#a4b1b2"/><stop offset="1" stop-color="#88a0a3"/></linearGradient><radialGradient id="radial-gradient-3" cx="403.37" cy="999.03" fx="403.37" fy="999.03" r="548.39" gradientTransform="translate(551.14 1493.78) rotate(-14.34)" xlink:href="#radial-gradient"/><radialGradient id="radial-gradient-4" cx="2481.65" cy="4139.08" fx="2481.65" fy="4139.08" r="314.74" gradientTransform="translate(2.99 209.39) rotate(-4.61)" xlink:href="#radial-gradient"/><linearGradient id="linear-gradient-3" x1="2605.59" y1="3925.43" x2="2889.3" y2="3925.43" gradientTransform="translate(2.99 209.39) rotate(-4.61)" gradientUnits="userSpaceOnUse"><stop offset="0" stop-color="#80c242"/><stop offset="1" stop-color="#519943"/></linearGradient><radialGradient id="radial-gradient-5" cx="2690.9" cy="3683.8" fx="2690.9" fy="3683.8" r="141.85" gradientTransform="translate(2.99 209.39) rotate(-4.61)" xlink:href="#radial-gradient"/><radialGradient id="radial-gradient-6" cx="2357.71" cy="3980.73" fx="2357.71" fy="3980.73" r="251.56" gradientTransform="translate(2.99 209.39) rotate(-4.61)" xlink:href="#radial-gradient"/><linearGradient id="linear-gradient-4" x1="2361.59" y1="3268.23" x2="2554.28" y2="3268.23" gradientTransform="translate(80.87 597.66) rotate(-9.05)" xlink:href="#linear-gradient"/><radialGradient id="radial-gradient-7" cx="3346.3" cy="3951.63" fx="3346.3" fy="3951.63" r="789.69" gradientTransform="matrix(1, 0, 0, 1, 0, 0)" xlink:href="#radial-gradient"/><linearGradient id="linear-gradient-5" x1="3299.23" y1="3909.49" x2="3779.16" y2="3909.49" gradientTransform="matrix(1, 0, 0, 1, 0, 0)" xlink:href="#linear-gradient-3"/><radialGradient id="radial-gradient-8" cx="3511.29" cy="3667.45" fx="3511.29" fy="3667.45" r="146.14" gradientTransform="matrix(1, 0, 0, 1, 0, 0)" xlink:href="#radial-gradient"/><radialGradient id="radial-gradient-9" cx="3754.77" cy="4010.24" fx="3754.77" fy="4010.24" r="512.31" gradientTransform="matrix(1, 0, 0, 1, 0, 0)" xlink:href="#radial-gradient"/><linearGradient id="linear-gradient-6" x1="3282.2" y1="3478.88" x2="3565.42" y2="3478.88" gradientTransform="matrix(1, 0, 0, 1, 0, 0)" xlink:href="#linear-gradient"/><filter id="luminosity-noclip-2" x="2677.03" y="2428.32" width="334.35" height="120.66" color-interpolation-filters="sRGB" filterUnits="userSpaceOnUse"><feFlood flood-color="#fff" result="bg"/><feBlend in="SourceGraphic" in2="bg"/></filter><filter id="luminosity-noclip-3" x="2677.03" y="-10329.68" width="334.35" height="32766" color-interpolation-filters="sRGB" filterUnits="userSpaceOnUse"><feFlood flood-color="#fff" result="bg"/><feBlend in="SourceGraphic" in2="bg"/></filter><mask id="mask-1" x="2677.03" y="-10329.68" width="334.35" height="32766" maskUnits="userSpaceOnUse"/><linearGradient id="linear-gradient-7" x1="2881.13" y1="2377.48" x2="2906.45" y2="2517.86" gradientTransform="translate(26.91 -65.97) rotate(1.75)" gradientUnits="userSpaceOnUse"><stop offset="0" stop-color="#fff"/><stop offset=".47" stop-color="#868686"/><stop offset="1" stop-color="#000"/></linearGradient><mask id="mask" x="2677.03" y="2428.32" width="334.35" height="120.66" maskUnits="userSpaceOnUse"><g class="cls-37"><g class="cls-38"><path class="cls-8" d="M2677.03,2428.32s65.88,24.93,94.07,79.14c12.19,9.28,15.63,5.01,36.91-2.49,21.28-7.48,119.01-64.31,203.38-1.08-133.74,40.31-192.03,46.64-222.55,44.82-30.53-1.82-76.33-58.12-111.8-120.38Z"/></g></g></mask><linearGradient id="linear-gradient-8" x1="2881.13" y1="2377.48" x2="2906.45" y2="2517.86" gradientTransform="translate(26.91 -65.97) rotate(1.75)" gradientUnits="userSpaceOnUse"><stop offset="0" stop-color="#141414"/><stop offset=".47" stop-color="#2b2b2b"/><stop offset="1" stop-color="#c4c5c7"/></linearGradient><filter id="luminosity-noclip-4" x="3099.39" y="1856.47" width="585.15" height="475.54" color-interpolation-filters="sRGB" filterUnits="userSpaceOnUse"><feFlood flood-color="#fff" result="bg"/><feBlend in="SourceGraphic" in2="bg"/></filter><filter id="luminosity-noclip-5" x="3099.39" y="-10329.68" width="585.15" height="32766" color-interpolation-filters="sRGB" filterUnits="userSpaceOnUse"><feFlood flood-color="#fff" result="bg"/><feBlend in="SourceGraphic" in2="bg"/></filter><mask id="mask-3" x="3099.39" y="-10329.68" width="585.15" height="32766" maskUnits="userSpaceOnUse"/><linearGradient id="linear-gradient-9" x1="3365.72" y1="1638.67" x2="3401.25" y2="2228.12" gradientTransform="matrix(1, 0, 0, 1, 0, 0)" gradientUnits="userSpaceOnUse"><stop offset="0" stop-color="#fff"/><stop offset=".47" stop-color="#868686"/><stop offset="1" stop-color="#000"/></linearGradient><mask id="mask-2" x="3099.39" y="1856.47" width="585.15" height="475.54" maskUnits="userSpaceOnUse"><g class="cls-28"><g class="cls-18"><path class="cls-7" d="M3659.88,1913.52c-160.54,93.17-391.12,25.65-493.5-57.05-95.41,103.8-60.91,336.68-60.91,336.68l471.44,138.86c48.75-56.39,155.83-246.66,82.97-418.49Z"/></g></g></mask><linearGradient id="linear-gradient-10" x1="3365.72" y1="1638.67" x2="3401.25" y2="2228.12" gradientTransform="matrix(1, 0, 0, 1, 0, 0)" xlink:href="#linear-gradient-8"/><filter id="luminosity-noclip-6" x="2375.75" y="1903.58" width="481.13" height="430.02" color-interpolation-filters="sRGB" filterUnits="userSpaceOnUse"><feFlood flood-color="#fff" result="bg"/><feBlend in="SourceGraphic" in2="bg"/></filter><filter id="luminosity-noclip-7" x="2375.75" y="-10329.68" width="481.13" height="32766" color-interpolation-filters="sRGB" filterUnits="userSpaceOnUse"><feFlood flood-color="#fff" result="bg"/><feBlend in="SourceGraphic" in2="bg"/></filter><mask id="mask-5" x="2375.75" y="-10329.68" width="481.13" height="32766" maskUnits="userSpaceOnUse"/><linearGradient id="linear-gradient-11" x1="2599.41" y1="1750.19" x2="2628.43" y2="2231.61" gradientTransform="matrix(1, 0, 0, 1, 0, 0)" gradientUnits="userSpaceOnUse"><stop offset="0" stop-color="#fff"/><stop offset=".47" stop-color="#868686"/><stop offset="1" stop-color="#000"/></linearGradient><mask id="mask-4" x="2375.75" y="1903.58" width="481.13" height="430.02" maskUnits="userSpaceOnUse"><g class="cls-30"><g class="cls-24"><path class="cls-6" d="M2843.02,1903.58c-121.42,51.91-383.18,67.34-458.59,40.45-37.05,227.94,53.48,328.37,103.16,389.57l366.67-218.31s10.73-160.85-11.24-211.71Z"/></g></g></mask><linearGradient id="linear-gradient-12" x1="2599.41" y1="1750.19" x2="2628.43" y2="2231.61" gradientTransform="matrix(1, 0, 0, 1, 0, 0)" xlink:href="#linear-gradient-8"/><linearGradient id="linear-gradient-13" x1="4240.3" y1="2700.6" x2="4139.74" y2="2799.49" gradientTransform="matrix(1, 0, 0, 1, 0, 0)" xlink:href="#linear-gradient"/><radialGradient id="radial-gradient-10" cx="4317.18" cy="3306.53" fx="4317.18" fy="3306.53" r="510.71" gradientTransform="matrix(1, 0, 0, 1, 0, 0)" gradientUnits="userSpaceOnUse"><stop offset="0" stop-color="#fff"/><stop offset="1" stop-color="#cde1ef"/></radialGradient></defs><g><g><g><path class="cls-43" d="M1631.22,2397.19s108.96,520.48,412.95-38.97c66.55-28.42,114.57,16,110.48,60.08-126.09,306.59-463.4,632.96-747.71,121.1,13.01-122.11,224.28-142.21,224.28-142.21Z"/><path class="cls-35" d="M1484.3,2440.38c248.24,423.25,524,232.09,670.58-26.3-.03,1.4-.1,2.81-.23,4.22-126.09,306.59-463.4,632.96-747.71,121.1,4.91-46.05,38.02-77.59,77.36-99.02Z"/><path class="cls-42" d="M1439.72,2472.99c264.24,457.73,571.54,204.63,712.17-78.34,2.5,7.6,3.5,15.63,2.76,23.65-126.09,306.59-463.4,632.96-747.71,121.1,2.84-26.74,15.21-48.59,32.77-66.41Z"/><path class="cls-15" d="M1395.74,2545.62l-1.97-3.55,.43-4.04c13.96-131.01,226.76-152.75,235.81-153.61l11.41-1.08,2.36,11.21c.44,2.1,45.32,209.98,149.43,210.01h.02c46.77,0,126.32-43.82,239.69-252.47l2.13-3.92,4.1-1.75c15.53-6.63,30.93-9.99,45.78-9.99,24.95,0,47.34,9.5,63.07,26.75,14.23,15.61,21.31,36.13,19.44,56.29l-.18,1.92-.73,1.77c-81.16,197.35-245,396.49-428.07,396.53h-.05c-126.34,0-241.63-92.22-342.65-274.08Zm733.3-165.16c-10.81-11.86-26.47-18.38-44.12-18.38-10.13,0-20.76,2.12-31.68,6.3-95.02,173.76-182.48,261.83-260.02,261.83h-.03c-110.03-.03-160.15-171.68-171.84-218.83-41.71,6.02-187.41,33.57-201.16,125.46,95.63,170.69,202.68,257.23,318.19,257.23h.04c78.16-.02,159.88-41.18,236.35-119.04,66.63-67.86,125.97-160.03,167.24-259.71,.63-12.43-4.04-25.03-12.99-34.84Z"/></g><g><g><g><path class="cls-23" d="M1619.12,2436.21s212.68,25.28,80,231.12c-132.69,205.85-324,161.86-347.46,41.23,195.07-70.37,267.47-272.35,267.47-272.35Z"/><path class="cls-15" d="M1339.07,2711.02l-2.1-10.78,10.34-3.73c186.86-67.41,259.03-262.66,259.74-264.62l3.44-9.61,10.14,1.2c3.81,.45,93.52,11.83,124.64,77.96,21.29,45.23,9.39,103.38-35.38,172.84-55.04,85.39-126.32,137.73-200.71,147.37h-.01c-83.97,10.87-155.51-35.66-170.09-110.63Zm27.73,5.54c16.32,55.09,73.01,88.21,139.07,79.65h.01c66.78-8.65,131.57-56.89,182.46-135.83,39.62-61.47,50.99-111.24,33.78-147.93-19.73-42.05-72.98-57.23-94.89-61.8-17.39,41.96-92.46,199.91-260.43,265.91Z"/></g><g><path class="cls-5" d="M1281.02,2399.48c-80.84,97.33-189.47,249.48,36.12,372.18,65.52,35.64,186.34,40.77,262.09-73.38l-298.21-298.8Z"/><path class="cls-15" d="M1437.43,2805.31c80.74-10.45,131.12-114.12,131.12-114.12-99.42,110.02-186.41,101.24-245.28,69.21-73.4-39.92-115.61-86.19-125.47-137.48-14.18-73.84,39.1-150.24,93.09-215.25l-19.72-16.38c-57.82,69.61-114.74,152.14-98.55,236.47,11.37,59.19,57.94,111.4,138.4,155.17,31.95,17.38,78.04,28.64,126.42,22.38Z"/></g><g><path class="cls-5" d="M1643.51,2194.3c-161-185.4-95.42-252.96-123.48-399.84-22.86-119.65-324.3-2.92-147.83,372.63,0,0-96.5,179.36,65.14,366.25l213.69,9.52s135.45-183.92-7.52-348.57Z"/><path class="cls-33" d="M1410.08,1779.14s82.54-20.77,51.34,151.34c-31.19,172.11,4.03,287.6,20.32,320.59,16.3,32.98,10.2,159.65,2.56,170.66-7.65,11,31.05,239.85,31.05,239.85,0,0,87.55-61.56,126.55-119.64,38.99-58.08,86.01-190.2,37.55-286.42-48.45-96.22-123.61-120.68-140.4-237.87-16.8-117.2-10.98-224.28-27.04-243.84-16.07-19.56-76.43-15.32-101.94,5.34Z"/><path class="cls-15" d="M1661.36,2550.47c1.45-1.96,35.59-48.85,52-117.15,15.29-63.66,17.27-158.26-60.17-247.43-110.87-127.67-111.27-197.44-111.73-278.22-.21-35.19-.42-71.58-8.83-115.62-5.14-26.94-23.03-46.23-49.07-52.91-40.87-10.5-92.28,11.41-127.94,54.5-32.91,39.76-98.04,155.31,2.39,373.31-6.83,14.76-23.38,55.79-26.63,112.45-3.72,64.59,9.97,162.54,96.27,262.34l19.4-16.78c-64.46-74.54-94.79-156.26-90.14-242.9,3.48-64.89,26.38-108.48,26.62-108.91l3.02-5.67-2.73-5.83c-97.89-208.32-38.52-315.31-8.44-351.64,33.84-40.89,76.49-52.51,101.8-46.01,11.51,2.95,26.1,11.05,30.26,32.88,7.98,41.74,8.18,76.92,8.38,110.96,.5,85.88,.92,160.04,118.01,294.88,134.69,155.11,8.18,330.8,6.88,332.56l20.65,15.21Z"/></g></g><path class="cls-15" d="M1640.38,2535.73s-.27,.49-.77,1.4c-.52,.98-1.19,2.06-2.1,3.63-.88,1.53-1.96,3.39-3.42,5.61-1.42,2.2-3.01,4.69-4.75,7.4-1.86,2.67-3.87,5.55-6,8.61-2.08,3.1-4.46,6.25-6.95,9.49-2.48,3.26-5.04,6.64-7.65,10.07-2.75,3.33-5.55,6.71-8.35,10.09-2.83,3.36-5.56,6.83-8.45,10.06-2.92,3.21-5.79,6.37-8.57,9.43-2.8,3.07-5.49,6.04-8.05,8.85-2.59,2.78-5.2,5.26-7.53,7.63-9.42,9.43-15.7,15.71-15.7,15.71,0,0,7.32-5.07,18.3-12.67,2.74-1.93,5.78-3.92,8.86-6.21,3.05-2.34,6.26-4.79,9.59-7.34,3.34-2.56,6.79-5.19,10.3-7.87,3.48-2.72,6.85-5.68,10.32-8.55,3.45-2.9,6.9-5.8,10.29-8.66,3.28-3,6.51-5.95,9.64-8.82,3.14-2.85,6.17-5.63,8.9-8.43,2.78-2.76,5.41-5.38,7.84-7.79,2.35-2.52,4.51-4.83,6.43-6.88,1.91-2.01,3.58-3.95,4.96-5.57,1.35-1.59,2.41-2.84,3.13-3.69,.66-.81,1.02-1.24,1.02-1.24l-21.31-14.28Z"/></g></g><g><g><path class="cls-44" d="M1502.47,3069.19c-61.04,38.96-129.98,16.83-129.98,16.83l-204.37-1578.85,129.99-16.83,204.36,1578.84Z"/><path class="cls-16" d="M1411.06,3086.01l-204.37-1578.85,92.05-11.92-.63-4.91-129.99,16.83,204.37,1578.85s28.99,9.29,66.02,5.21c-16.71-1.78-27.45-5.21-27.45-5.21Z"/><path class="cls-1" d="M1252.03,1501.19l204.36,1578.84c-7.42,4.74-14.96,8.56-22.48,11.64,21.21-1.75,45.45-7.74,68.56-22.49l-204.36-1578.84-129.99,16.83,.62,4.8,83.29-10.78Z"/><path class="cls-9" d="M1419.44,3105.09c-29.13,0-50-6.59-50.87-6.88l-7.75-2.49-207.06-1599.64,155.42-20.12,207.05,1599.64-6.86,4.38c-26.09,16.65-56.35,25.1-89.93,25.1Zm-35.35-29.36c7.57,1.64,20.18,3.72,35.35,3.72,25.66,0,48.9-5.7,69.24-16.96l-201.64-1557.78-104.56,13.53,201.61,1557.5Z"/></g><g><polygon class="cls-5" points="2509.72 1482.36 190.2 1763.25 12.24 293.66 2331.76 12.77 2509.72 1482.36"/><path class="cls-27" d="M2322.29,25.54s-375.04,866.13-1051.79,1067.62C593.75,1294.64,195.66,1763.25,195.66,1763.25l2314.06-280.88L2322.29,25.54Z"/><path class="cls-15" d="M2521.97,1492.5L180.74,1776.02,0,283.52,2341.23,0l180.74,1492.5ZM199.68,1750.48l2297.8-278.26L2322.29,25.54,24.49,303.79,199.68,1750.48Z"/></g><g><g><path class="cls-15" d="M464.3,933.23l162.36-560.18,135.34-16.04,63.2,533.46,58.65-6.95,13.37,112.78-58.65,6.95,16.97,143.24-124.06,14.7-16.97-143.24-236.85,28.06-13.36-112.78Zm236.84-28.06l-34.61-292.11-2.25,.27-86.07,306.4,122.93-14.57Z"/><path class="cls-15" d="M991.97,521.89c-14.96-126.31,43.03-206.38,164.84-220.81,121.81-14.43,196.9,49.86,211.87,176.18l48.64,410.53c14.97,126.32-43.03,206.38-164.83,220.81-121.81,14.43-196.91-49.86-211.87-176.18l-48.64-410.53Zm173.64,403.73c6.68,56.39,34.03,74.88,73.5,70.21,39.47-4.68,61.74-29.05,55.06-85.44l-50.51-426.32c-6.68-56.39-34.03-74.88-73.5-70.21-39.47,4.68-61.75,29.05-55.07,85.44l50.51,426.31Z"/><path class="cls-15" d="M1562.83,803.07l162.36-560.18,135.34-16.03,63.21,533.46,58.65-6.95,13.36,112.78-58.65,6.95,16.97,143.23-124.07,14.7-16.96-143.24-236.84,28.06-13.36-112.78Zm236.84-28.06l-34.61-292.11-2.25,.27-86.07,306.4,122.93-14.56Z"/></g><g><path class="cls-15" d="M616.61,1374.08l3.34,28.17c4.11,34.67-10.37,55.53-44.41,59.56l-16.1,1.91,9.65,81.41-34.05,4.04-25.67-216.67,50.14-5.94c34.05-4.04,53,12.86,57.11,47.53Zm-69.53-14.67l8.7,73.36,16.09-1.91c10.84-1.28,16.13-6.93,14.3-22.41l-3.85-32.5c-1.84-15.48-8.31-19.73-19.14-18.45l-16.1,1.91Z"/><path class="cls-15" d="M757.9,1522.76l-34.35,4.07-10.54-38.62-41.79,4.95-1.22,40.01-31.26,3.7,9-220.78,49.83-5.91,60.34,212.57Zm-85.83-59.51l32.81-3.89-29.09-107.66-.61,.07-3.12,111.48Z"/><path class="cls-15" d="M810.14,1394.15l47.67-5.65,8.14,68.71c4.11,34.67-10.88,56.53-44.31,60.5-33.43,3.96-53.11-13.79-57.21-48.47l-13.35-112.67c-4.11-34.67,10.88-56.53,44.31-60.49,33.43-3.96,53.11,13.8,57.22,48.46l2.49,21.05-32.19,3.81-2.75-23.21c-1.83-15.48-9.34-20.55-20.18-19.27-10.83,1.28-16.94,7.97-15.11,23.45l13.86,117c1.83,15.48,9.3,20.24,20.14,18.96,10.83-1.28,16.98-7.66,15.15-23.14l-4.73-39.93-15.48,1.84-3.67-30.96Z"/><path class="cls-15" d="M913.29,1377.23l46.74-5.54,3.67,30.96-46.74,5.53,7.52,63.45,58.81-6.97,3.67,30.95-92.86,11-25.67-216.68,92.86-11,3.66,30.96-58.81,6.97,7.15,60.36Z"/><path class="cls-15" d="M1068.33,1326.84l-.62,.07,18.59,156.93-30.64,3.63-25.67-216.67,42.72-5.06,49.72,125.62,.62-.07-15.37-129.69,30.34-3.59,25.67,216.67-34.97,4.14-60.38-151.98Z"/><path class="cls-15" d="M1165.84,1307.44c-4.1-34.67,11.81-56.64,45.24-60.6,33.43-3.96,54.03,13.69,58.14,48.35l13.35,112.67c4.11,34.67-11.8,56.64-45.24,60.6-33.42,3.96-54.03-13.68-58.15-48.36l-13.34-112.67Zm47.65,110.8c1.83,15.48,9.34,20.55,20.18,19.27,10.83-1.28,16.94-7.97,15.11-23.45l-13.86-117.01c-1.83-15.48-9.34-20.55-20.17-19.27-10.84,1.28-16.95,7.97-15.11,23.45l13.86,117.01Z"/><path class="cls-15" d="M1275.13,1241.76l105.24-12.46,3.67,30.95-35.6,4.22,22,185.72-34.04,4.04-22.01-185.72-35.6,4.22-3.67-30.96Z"/><path class="cls-15" d="M1488.65,1314.08l43.95-5.21,3.67,30.96-43.95,5.21,10.6,89.45-34.05,4.04-25.67-216.68,90.07-10.67,3.67,30.96-56.02,6.64,7.73,65.31Z"/><path class="cls-15" d="M1553.05,1261.57c-4.11-34.67,11.81-56.64,45.23-60.6,33.44-3.96,54.04,13.68,58.15,48.35l13.34,112.67c4.11,34.67-11.8,56.65-45.23,60.61-33.44,3.96-54.04-13.69-58.15-48.36l-13.35-112.67Zm47.65,110.8c1.84,15.48,9.35,20.55,20.17,19.26,10.84-1.28,16.95-7.97,15.11-23.45l-13.86-117.01c-1.84-15.47-9.34-20.55-20.17-19.26-10.84,1.28-16.95,7.97-15.12,23.45l13.86,117.01Z"/><path class="cls-15" d="M1704.74,1190.86l19.8,167.15c1.84,15.48,9.3,20.24,20.13,18.96,10.84-1.28,16.99-7.66,15.16-23.14l-19.81-167.14,32.19-3.82,19.55,164.98c4.11,34.67-10.88,56.53-44.31,60.49-33.43,3.96-53.11-13.79-57.22-48.46l-19.55-164.98,34.05-4.03Z"/><path class="cls-15" d="M1833.46,1236.19l-.62,.08,18.6,156.93-30.65,3.63-25.67-216.67,42.72-5.06,49.72,125.62,.62-.08-15.37-129.69,30.33-3.59,25.67,216.67-34.97,4.14-60.39-151.98Z"/><path class="cls-15" d="M1927.59,1164.46l53.86-6.38c34.05-4.03,53.01,12.87,57.11,47.54l12.98,109.57c4.11,34.67-10.38,55.53-44.42,59.56l-53.87,6.39-25.67-216.68Zm37.72,26.92l18.33,154.77,19.2-2.28c10.83-1.28,16.67-7.62,14.84-23.1l-13.35-112.67c-1.82-15.48-8.99-20.28-19.82-18.99l-19.19,2.28Z"/></g></g><g><g><path class="cls-5" d="M1491.15,2233.21s107.02-52.82,32.54-136.5c-74.5-83.69-434.91-55.4-448.13,44.69-13.22,100.08,56.74,93.79,30.11,136.12-26.62,42.33-53.55,106.46,42.62,163.61,17.3,10.64-9.66,47.61-14.83,73.18-8.88,43.96,17.3,67.84,51.76,85.37-21.98,33.69-31.19,95.06,101.01,101.28,118.42,5.56,316.42,7.58,282.58-145.51,51.79-22.58,46.21-118.55-14.72-144.15,38.23-33.36,69.25-160.4-62.94-178.07Z"/><path class="cls-34" d="M1282.02,2049.69s138.06,1.16,133.4,104.33c-23.21,37.96-226.41,78.8-254.37,87.73,193.74-16.84,308.81-2.93,308.81-2.93,0,0,79.97,69.35,5.99,118.42-73.99,49.07-275.85,66.43-275.85,66.43,0,0,287.05-5.86,322.56-2.04,35.51,3.82,43.65,85.2-39.58,90.35-83.25,5.16-231.87,67.19-231.87,67.19l193.3-21s44.74,99.39-157.58,129.98c131.87,24.53,287.01,17.73,283.44-125.4,37.56-52.5,36.34-106.24-6.17-146.33,3.13-20.57,17.09-28.86,21.57-63.1,4.48-34.23,18.04-73.62-85.06-121.93,55.1-44.35,138.93-173.21-218.58-181.7Z"/><path class="cls-15" d="M1285.63,2713.76c-64.57-3.03-104.94-19.48-119.99-48.89-8.99-17.55-8.14-38.95,2.04-60.16-27.88-16.4-56.79-43.42-46.79-92.94,2.01-9.95,6.56-20.61,10.97-30.94,3.62-8.49,10.26-24.07,9.33-29.01-39.5-23.6-63.29-51.17-70.71-81.97-9.44-39.18,9.37-75.35,24.34-99.16,7.03-11.18,4.92-13.83-5.24-26.56-13.84-17.35-34.76-43.57-26.73-104.41,6.34-47.95,69.89-73.93,122.09-87.28,121.71-31.12,296.52-22.45,348.33,35.74,23.96,26.92,33.47,54.18,28.23,81.01-4.98,25.56-22.56,45.1-38.14,57.89,46.13,14.39,64.68,43.8,71.96,67.98,11.72,38.96-.49,85.15-20.88,112.76,26,17.71,42.22,49.01,42.45,84.02,.21,30.6-12.47,56.61-33.7,70.38,8.64,51.87-4.66,114.9-105.26,140.62-58.08,14.86-129.81,13.85-192.29,10.92Zm-197.37-570.68c-6.6,50.02,8.9,69.45,21.36,85.06,11.07,13.88,23.62,29.62,6.9,56.21-13.56,21.56-28.21,50.07-21.11,79.5,5.77,23.97,25.77,46.26,59.6,66.37,20.85,12.83,9.53,39.36,.43,60.68-3.89,9.14-7.92,18.58-9.42,25.96-6.3,31.25,6.73,51.94,45,71.4l12.74,6.48-7.81,11.96c-5.27,8.08-16.55,28.79-7.49,46.51,10.26,20.04,45.19,32.45,98.36,34.95,60.61,2.85,129.94,3.87,184.74-10.14,71.81-18.36,98.73-56.42,84.72-119.79l-2.28-10.3,9.67-4.22c20.51-8.94,27.69-32.56,27.56-51.67-.16-23.7-11.29-55.96-42.11-68.91l-18.96-7.97,15.49-13.52c18.17-15.85,36.49-61.24,25.09-99.16-9.5-31.58-36.85-50.6-81.31-56.55l-41.72-5.58,37.75-18.63c.44-.21,44.07-22.62,50.85-57.42,3.62-18.56-3.85-38.43-22.21-59.06-20.08-22.55-68.87-38.33-133.87-43.3-62.12-4.76-132.75,.98-188.95,15.35-61.13,15.63-99.64,40.23-103.02,65.79Z"/></g><path class="cls-15" d="M1492.04,2220.42s-3.6-.04-9.89-.1c-3.15-.02-6.94-.13-11.4,0-4.44,.08-9.44,.15-14.91,.25-5.45,.09-11.34,.19-17.59,.3-6.24,.09-12.81,.18-19.58,.63-13.52,.72-27.95,1.48-42.37,2.25-7.21,.38-14.4,.77-21.49,1.14-7.07,.67-14.03,1.33-20.76,1.96-13.44,1.3-26,2.52-36.76,3.56-21.47,2.08-35.79,3.47-35.79,3.47,0,0,14.39,.21,35.97,.54,10.77,.16,23.34,.35,36.79,.55,6.72,.12,13.66,.23,20.71,.36,7.06,.41,14.21,.83,21.38,1.25,14.3,.83,28.6,1.67,42,2.45,6.7,.3,13.14,.93,19.23,1.53,6.09,.58,11.84,1.12,17.16,1.62,5.31,.5,10.17,.96,14.48,1.37,4.29,.36,8.1,.89,11.22,1.26,6.25,.76,9.81,1.2,9.81,1.2l1.79-25.58Z"/><path class="cls-15" d="M1571.67,2542.68s-3.6-.04-9.89-.1c-3.16-.01-6.94-.12-11.41,0-4.44,.08-9.44,.16-14.9,.25-5.45,.09-11.35,.19-17.59,.3-6.24,.09-12.81,.18-19.58,.63-13.53,.72-27.95,1.48-42.38,2.25-7.19,.38-14.4,.77-21.48,1.14-7.07,.67-14.03,1.33-20.77,1.97-13.45,1.3-26,2.51-36.75,3.56-21.48,2.08-35.79,3.47-35.79,3.47,0,0,14.38,.21,35.97,.53,10.76,.16,23.33,.35,36.78,.55,6.72,.11,13.67,.23,20.72,.35,7.05,.41,14.21,.83,21.37,1.25,14.3,.84,28.6,1.67,42,2.46,6.71,.3,13.14,.93,19.23,1.53,6.09,.58,11.85,1.12,17.16,1.62,5.3,.5,10.17,.96,14.48,1.36,4.29,.36,8.1,.89,11.22,1.26,6.25,.76,9.81,1.2,9.81,1.2l1.79-25.58Z"/><path class="cls-15" d="M1559.87,2399.86s-3.6-.03-9.89-.1c-3.16-.02-6.94-.12-11.41,0-4.44,.08-9.44,.16-14.9,.25-5.46,.09-11.35,.19-17.6,.3-6.24,.09-12.81,.18-19.58,.63-13.53,.72-27.95,1.49-42.38,2.25-7.2,.38-14.4,.77-21.49,1.14-7.07,.67-14.03,1.33-20.76,1.97-13.44,1.3-25.99,2.52-36.76,3.56-21.47,2.08-35.78,3.47-35.78,3.47,0,0,14.39,.21,35.97,.54,10.76,.16,23.33,.35,36.79,.55,6.71,.11,13.66,.23,20.71,.35,7.06,.41,14.22,.83,21.38,1.25,14.3,.83,28.59,1.67,42,2.45,6.7,.3,13.14,.94,19.23,1.53,6.08,.58,11.84,1.12,17.16,1.63,5.31,.5,10.17,.96,14.48,1.37,4.29,.36,8.1,.89,11.22,1.26,6.24,.77,9.81,1.2,9.81,1.2l1.79-25.58Z"/></g></g></g><g><g><g><g><path class="cls-14" d="M2427.09,4122.95s-57.11,41.68-40.98,85.77c16.14,44.09,294.34,71.94,435.64,40.09,141.29-31.85,360.29-160.16,387.91-178.26,27.62-18.1,33.84-65.48-13.83-81.53-47.67-16.03-768.74,133.93-768.74,133.93Z"/><path class="cls-15" d="M2747.1,4272.4h0c-71.1,5.73-158.12,3.05-232.77-7.16-84.64-11.58-131.82-29.11-140.24-52.1-19.23-52.56,42.82-98.6,45.46-100.53l2.23-1.63,2.71-.56c24.01-4.99,589.73-122.43,738.41-134.4,24.48-1.97,32.45-.67,37.02,.87,24.84,8.36,40.7,25.75,43.52,47.7,2.78,21.62-7.98,44.4-26.75,56.7-26.57,17.41-248.7,147.72-392.11,180.05-22.14,4.99-48.2,8.71-77.47,11.07Zm-314.49-137.49c-9.16,7.37-45.55,39.09-34.45,69.41,1.92,5.23,28,22.97,119.64,35.51,72.92,9.97,157.87,12.59,227.23,7.01h0c28.08-2.26,52.93-5.8,73.89-10.53,139.78-31.51,357.62-159.39,383.7-176.48,10.58-6.93,16.9-20.09,15.38-31.99-1.57-12.19-10.65-21.41-26.27-26.66-.44-.13-5.44-1.34-26.78,.38-141.72,11.41-687.39,124.04-732.35,133.35Z"/></g><g><path class="cls-4" d="M2849.66,3712.34s-76.8,3.05-84.49,48.78c-7.69,45.73,1.32,64.12-42.74,76.6-44.06,12.47,175.24,307.29,175.24,307.29,0,0,175.68-56.61,292.27-129.56,28.36-111.49,5.14-184.96-31.17-227.39,16.99-63.98-6.43-113.98-75.92-127.17-69.5-13.19-233.19,51.45-233.19,51.45Z"/><path class="cls-41" d="M2906.27,3799.08s80.14,54.48,194.95,14.71c-37.54,46-91.84,62.63-91.84,62.63l80.09-8.86s-36.52,178.98-131.85,249.91c151.55-57.98,238.8-109.72,238.8-109.72,0,0,21.79-162.24-34.9-211.58,2.84-55.35,13.92-96.37-36.66-106.53-50.58-10.17-218.58,109.44-218.58,109.44Z"/><path class="cls-15" d="M2892.86,4160.03l-5.47-7.37c-.49-.66-49.32-66.39-95.81-136.31-97.16-146.14-89.9-167.5-86.41-177.77,2.25-6.64,7.15-11.33,13.78-13.2,26.72-7.56,27.32-13.29,30.27-40.83,.79-7.42,1.68-15.83,3.32-25.56,8.19-48.67,73.21-57.64,92.94-59.23,.52-.04,.99-.08,1.41-.11,16.13-6.26,122.41-46.62,196.98-52.62,16.21-1.31,30.14-.88,41.39,1.25,35.15,6.67,61.73,22.91,76.87,46.96,15,23.82,18.64,54.71,10.65,89.65,26.92,34.27,61.88,106.82,29.6,233.7l-1.27,4.98-4.36,2.73c-116.6,72.96-287.91,128.57-295.14,130.9l-8.74,2.82Zm-163.51-310.99c.44,8.72,9.3,41.61,84.81,154.95,36.63,55,74.46,107.04,88.31,125.91,36.21-12.24,177.26-61.77,276.3-122.61,28.94-119.26-6.04-183.22-29.71-210.9l-4.39-5.11,1.73-6.51c8.11-30.53,6.05-56.76-5.97-75.86-11.41-18.12-31.58-30.04-59.94-35.42-9.01-1.71-20.63-2.01-34.55-.89-75.39,6.07-190.39,51.21-191.55,51.67l-2.02,.8-2.18,.09c-.11,0-1.05,.05-2.64,.18-6.58,.53-64.37,6.09-69.72,37.92-1.5,8.96-2.36,16.96-3.11,24.02-3.03,28.53-5.26,49.35-45.36,61.77Z"/></g><g><path class="cls-5" d="M3110.9,3613.74c-8.54-64.61-43.67-94.95-105.61-88.61l-90.37,8.54s-87.96-3.86-82.5,106.02c5.45,109.88-27.02,103.09,21.82,131.06,48.85,27.98,195.34,48.11,269.58-35.57,19.48-49.66-4.37-56.84-12.92-121.45Z"/><path class="cls-13" d="M2979.1,3605.97s25.26,25.29,10.86,58.27c-14.4,32.98-110.48,94.93-154.63,82.86,99.31,101.73,324.62,27.38,299.99-45.17-24.64-72.56-27.71-164.68-78.87-170.74-51.15-6.06-124.68,15.42-124.68,15.42l47.33,59.35Z"/><path class="cls-15" d="M2991.98,3806.83c-57.9,4.67-114.26-7.85-144.12-24.95-34.01-19.48-36.43-28.76-31.95-60.01,2.29-16,5.75-40.19,3.7-81.54-2-40.42,7.61-71.6,28.55-92.67,28.03-28.18,65.74-26.87,67.33-26.8l-1.07,25.62c-.27,0-28.41-.72-48.29,19.47-15.5,15.74-22.54,40.34-20.91,73.1,2.17,43.81-1.5,69.47-3.92,86.45-1.37,9.58-2.36,16.5-.97,19.35,1.9,3.88,11.31,9.65,20.28,14.78,44.17,25.3,182.42,44.72,252.1-31.26,9.48-25.22,5.9-36.02-1.03-56.97-4.51-13.64-10.13-30.61-13.49-55.98-7.73-58.5-36.9-83.14-91.6-77.53l-2.6-25.51c68.57-7.06,110.07,27.44,119.62,99.68,3.04,22.97,8.02,38.01,12.41,51.29,7.61,22.98,13.62,41.13-.26,76.52l-.84,2.13-1.51,1.7c-36.31,40.93-89.49,58.94-141.43,63.13Z"/></g><path class="cls-15" d="M2874.49,3600.19s3.02,2.35,8.37,6.22c2.67,1.93,5.97,4.2,9.73,6.77,3.77,2.57,8.14,5.28,12.85,8.25,4.78,2.87,9.99,5.86,15.57,8.82,5.55,3.02,11.63,5.68,17.86,8.4,6.33,2.51,12.87,4.99,19.67,6.82,3.37,1.05,6.86,1.64,10.3,2.49,3.48,.53,6.96,1.35,10.47,1.56,7.02,1,14.05,.74,20.95,.44,1.72-.17,3.41-.44,5.12-.64,1.7-.23,3.42-.3,5.06-.73,3.29-.78,6.65-1.22,9.79-2.31,3.18-.93,6.32-1.83,9.29-3.08,3.01-1.14,6-2.22,8.71-3.7,5.62-2.59,10.63-5.73,15.38-8.5,2.27-1.58,4.44-3.09,6.5-4.52,2.16-1.35,4.05-2.83,5.8-4.26,3.49-2.88,6.83-5.15,9.2-7.43,4.93-4.36,7.93-6.8,7.93-6.8,0,0-1.99,3.22-5.78,8.76-1.81,2.85-4.47,5.92-7.49,9.53-2.88,3.75-6.86,7.29-11.03,11.4-4.49,3.73-9.33,7.94-15.21,11.39-2.8,1.95-5.93,3.52-9.13,5.17-3.13,1.81-6.62,3.02-10.12,4.39-7.04,2.69-14.7,4.41-22.57,5.48-7.89,.74-16.02,1.01-23.98-.02-4.02-.31-7.91-1.24-11.84-1.9-3.85-.94-7.71-1.86-11.41-3.11-1.84-.62-3.69-1.23-5.52-1.85-1.81-.68-3.56-1.44-5.33-2.14-3.56-1.36-6.88-3.09-10.2-4.67-6.53-3.37-12.59-7.02-18.06-10.83-5.56-3.68-10.44-7.65-14.86-11.37-8.79-7.5-15.33-14.55-19.62-19.68-4.31-5.13-6.39-8.34-6.39-8.34Z"/><g><path class="cls-20" d="M2971.97,4118.52s-152.52,88.02-376.95,78.42c-224.43-9.59-198.4-59.82-198.4-59.82,0,0-30.08-348.33,264.1-356.27,201.35-12.68,280.27,214.3,280.27,214.3,0,0,31.89,59.16,30.98,123.37Z"/><path class="cls-5" d="M2831.68,4096.95s-116.36,67.15-287.58,59.83c-171.23-7.31-151.37-45.64-151.37-45.64,0,0-22.95-265.75,201.49-271.81,153.62-9.68,213.83,163.5,213.83,163.5,0,0,24.33,45.13,23.63,94.12Z"/><path class="cls-15" d="M2694.61,4207.87c-33.19,2.67-66.88,3.31-100.13,1.89-120.28-5.14-190.04-22.87-207.32-52.71-4.63-7.99-4.94-15.85-3.51-21.52-1.57-23.09-8.46-177.37,77.87-279.42,47.4-56.03,114.32-85.72,198.64-88.06,86.55-5.38,164.74,31.65,226.16,107.11,43.13,52.99,63.53,106.75,66.45,114.82,4.26,8.17,32.93,65.56,32.03,128.73l-.11,7.28-6.31,3.64c-4.55,2.63-113.5,64.53-283.77,78.24Zm-286.08-65.86c.05,.53,.36,1.91,2.15,4.06,7.79,9.4,41.41,31.94,184.9,38.07,32.2,1.38,64.83,.76,96.98-1.83,141.71-11.41,241.02-58.25,266.54-71.43-1.55-57.1-29.11-109.11-29.4-109.65l-.82-1.86c-.19-.54-19.79-55.82-62.94-108.6-56.74-69.41-125.51-102.08-204.42-97.11l-.46,.02c-76.81,2.07-137.41,28.68-179.98,79-84.7,100.12-71.84,261.73-71.69,263.35l.32,3.7-1.19,2.29Z"/></g></g><g><path class="cls-43" d="M3091.55,3263.73l-.59,4.51-47.36,358.05s-58.8,50.9-124.88,3.56l-22.55-376.71s152.14-4.79,195.38,10.59Z"/><path class="cls-35" d="M2896.17,3253.14l1.6,26.75c44.55,.61,96.17,3.16,118.57,11.13l-.6,4.5-46.82,354.01c42.99,4.12,74.68-23.25,74.68-23.25l47.36-358.05,.59-4.51c-43.24-15.38-195.38-10.59-195.38-10.59Z"/><path class="cls-48" d="M2896.17,3253.14l.85,14.18c48.43-.19,122.61,1.28,150.75,11.27l-.59,4.51-47.36,358.05s-4.38,3.78-12.06,8.31c33.09-3.51,55.84-23.18,55.84-23.18l47.36-358.05,.59-4.51c-43.24-15.38-195.38-10.59-195.38-10.59Z"/><path class="cls-15" d="M2994.87,3661.46c-29.34,4.67-57.47-2.46-83.62-21.19l-4.97-3.56-23.7-395.97,13.19-.42c6.31-.2,155.06-4.68,200.08,11.32l9.78,3.48-49.96,377.66-3.68,3.19c-.94,.82-23.59,20.14-57.12,25.48Zm-63.73-38.67c19.01,12.14,39.06,16.64,59.7,13.35,19.24-3.07,34.18-12.19,40.75-16.82l45.78-346.21c-38.02-8.2-123.12-8.41-167.61-7.49l21.37,357.16Z"/></g></g><g><g><path class="cls-2" d="M4088.4,4088.61s60.08,37.28,47.3,82.46c-12.8,45.17-288.12,93.81-431.4,72.64-143.29-21.17-371.29-132.7-400.19-148.68-28.9-15.98-38.67-62.76,7.67-82.34,46.34-19.56,776.62,75.91,776.62,75.91Z"/><path class="cls-15" d="M3702.42,4256.39c-145.44-21.48-376.72-134.77-404.51-150.14-19.65-10.86-32.08-32.77-30.93-54.54,1.16-22.11,15.67-40.63,39.82-50.83,4.45-1.88,12.3-3.78,36.85-3.65,149.16,.78,722.1,75.48,746.41,78.66l2.75,.36,2.35,1.46c2.79,1.72,68.12,42.98,52.87,96.84-6.67,23.56-52.41,44.58-135.94,62.47-73.68,15.78-160.25,24.97-231.59,24.6h-.01c-29.36-.16-55.63-1.92-78.08-5.24Zm-358.9-233.51c-21.4-.11-26.31,1.47-26.74,1.63-15.18,6.41-23.54,16.28-24.19,28.56-.63,11.98,6.66,24.63,17.73,30.74,27.29,15.1,254.1,126.28,395.85,147.22,21.25,3.14,46.31,4.81,74.47,4.96h0c69.58,.37,154.1-8.62,226.07-24.02,90.44-19.38,115.13-39.03,116.64-44.38,8.79-31.07-29.88-59.97-39.56-66.63-45.53-5.92-598.1-77.31-740.28-78.06Z"/></g><g><path class="cls-32" d="M3636.23,3710.84s76.81-2.72,87.91,42.31c11.1,45.03,3.49,64.04,48.36,73.17,44.87,9.13-151.7,319.56-151.7,319.56,0,0-179.44-43.28-301.17-107.28-36.64-109.05-18.99-184.06,14.02-229.08-21.74-62.52-2.14-114.15,66.18-132.51,68.31-18.37,236.39,33.83,236.39,33.83Z"/><path class="cls-4" d="M3586.28,3801.58s-75.83,60.33-193.3,29.28c40.88,43.06,96.27,55.57,96.27,55.57l-80.53-2.83s49.85,175.74,150.23,239.33c-155.47-46.45-246.36-91.51-246.36-91.51,0,0-33.89-160.15,18.94-213.6-6.98-54.99-21.11-95.05,28.57-108.98,49.67-13.93,226.17,92.74,226.17,92.74Z"/><path class="cls-15" d="M3617.79,4158.35c-7.39-1.78-182.39-44.39-304.13-108.4l-4.54-2.39-1.64-4.88c-41.71-124.11-12.28-199.07,11.99-235.26-10.58-34.24-9.26-65.32,3.91-90.2,13.29-25.12,38.58-43.3,73.13-52.59,11.07-2.97,24.92-4.44,41.18-4.35,74.81,.4,183.81,32.67,200.37,37.71,.41,0,.89,0,1.41,0,19.8,.11,85.31,4.18,97.13,52.1,2.36,9.58,3.89,17.89,5.23,25.24,4.99,27.24,6.02,32.9,33.24,38.45,6.76,1.37,11.98,5.68,14.73,12.13,4.27,9.97,13.1,30.73-72.84,183.74-41.11,73.21-84.88,142.42-85.32,143.11l-4.9,7.76-8.93-2.15Zm98.8-378.42c-1.27-6.98-2.73-14.89-4.9-23.72-7.73-31.34-65.77-32.54-72.36-32.58-1.6,0-2.55,.02-2.65,.02l-2.18,.08-2.08-.64c-1.19-.36-119.24-36.75-194.88-37.16-13.96-.07-25.53,1.09-34.38,3.48-27.89,7.49-47.11,20.89-57.13,39.82-10.55,19.94-10.64,46.25-.26,76.09l2.21,6.37-3.99,5.43c-21.53,29.37-51.62,95.78-13.82,212.53,103.33,53.24,247.68,92.05,284.71,101.54,12.4-19.85,46.21-74.58,78.62-132.17,66.78-118.69,73.16-152.14,72.96-160.87-40.92-9.38-44.7-29.98-49.87-58.2Z"/></g><g><path class="cls-10" d="M3636.78,3616.83c-18.94-108.37-103.88-85.18-103.88-85.18l-90.02,11.62c-61.81,7.5-89.38,44.84-83.44,109.74,5.92,64.89-15.74,77.16,14.21,121.3,90.88,65.22,229.32,13.24,270.79-24.83,41.46-38.07,11.29-24.28-7.66-132.64Z"/><path class="cls-5" d="M3486.27,3616.33s-19.06,30.24,2.27,59.22c21.33,28.99,128.7,68.19,169.11,46.68-74.4,121.14-310.56,98.38-302.56,22.18,8.02-76.21-9.32-166.73,39.23-183.93,48.56-17.21,125.01-12.49,125.01-12.49l-33.06,68.35Z"/><path class="cls-15" d="M3518.05,3815.06c57.5-8.23,109.71-32.88,135.05-56.14,28.87-26.51,29.18-36.09,17.92-65.59-5.77-15.1-14.48-37.94-21.61-78.71-6.97-39.87-23.23-68.15-48.31-84.07-33.56-21.3-70.05-11.69-71.58-11.27l6.7,24.75c.27-.06,27.54-6.98,51.4,8.33,18.59,11.93,30.88,34.37,36.53,66.68,7.56,43.21,16.8,67.42,22.92,83.44,3.45,9.04,5.95,15.57,5.21,18.65-1,4.21-8.91,11.91-16.51,18.89-37.5,34.43-168.05,83.89-252.78,25.18-14.82-22.51-13.71-33.83-11.58-55.79,1.4-14.3,3.13-32.09,.8-57.58-5.37-58.76,17.63-89.23,72.22-95.84l-3.1-25.45c-68.44,8.25-101.3,51.06-94.66,123.63,2.11,23.07,.57,38.84-.79,52.76-2.34,24.09-4.19,43.12,17.15,74.58l1.29,1.89,1.85,1.33c44.46,31.9,100.29,37.73,151.88,30.34Z"/></g><path class="cls-15" d="M3608.22,3594.99s-2.63,2.78-7.31,7.45c-2.33,2.33-5.24,5.08-8.56,8.2-3.33,3.13-7.21,6.49-11.4,10.15-4.28,3.57-8.96,7.35-14.01,11.13-5.02,3.85-10.61,7.42-16.34,11.08-5.85,3.47-11.93,6.93-18.37,9.8-3.16,1.56-6.51,2.69-9.77,4.06-3.37,1.06-6.68,2.41-10.12,3.17-6.77,2.07-13.76,2.92-20.61,3.69-1.73,.1-3.45,.09-5.17,.16-1.71,.03-3.42,.23-5.1,.06-3.38-.26-6.76-.17-10.03-.76-3.28-.43-6.53-.83-9.66-1.6-3.14-.66-6.25-1.25-9.17-2.3-5.97-1.68-11.39-4-16.51-6-2.49-1.2-4.87-2.36-7.13-3.46-2.34-1-4.44-2.15-6.4-3.3-3.89-2.3-7.55-4.02-10.25-5.91-5.54-3.54-8.89-5.48-8.89-5.48,0,0,2.46,2.88,7.08,7.76,2.23,2.54,5.33,5.15,8.88,8.25,3.43,3.25,7.91,6.14,12.68,9.55,5.02,2.98,10.45,6.38,16.8,8.88,3.06,1.49,6.4,2.56,9.82,3.69,3.37,1.3,7,1.95,10.68,2.76,7.36,1.57,15.22,2.07,23.15,1.9,7.9-.5,15.98-1.5,23.68-3.76,3.91-.92,7.62-2.45,11.39-3.72,3.66-1.53,7.33-3.03,10.78-4.84,1.72-.9,3.45-1.79,5.17-2.69,1.67-.94,3.3-1.97,4.92-2.95,3.31-1.89,6.32-4.11,9.34-6.2,5.92-4.35,11.35-8.89,16.16-13.51,4.92-4.5,9.14-9.18,12.91-13.56,7.52-8.78,12.87-16.76,16.33-22.49,3.46-5.73,5.02-9.23,5.02-9.23Z"/><g><path class="cls-5" d="M3544.72,4125.04s158.69,76.34,381.76,49.94c223.08-26.39,193.36-74.53,193.36-74.53,0,0,3.88-349.61-290.07-335.46-201.73,2.44-263.41,234.7-263.41,234.7,0,0-27.36,61.39-21.64,125.35Z"/><path class="cls-49" d="M3683,4093.02s121.08,58.25,291.27,38.1c170.19-20.13,147.52-56.86,147.52-56.86,0,0,2.96-266.73-221.31-255.94-153.9,1.87-200.96,179.07-200.96,179.07,0,0-20.88,46.83-16.52,95.63Z"/><path class="cls-15" d="M3539.17,4136.6l-6.57-3.16-.65-7.25c-5.62-62.92,18.66-122.3,22.29-130.76,2.32-8.28,18.62-63.41,57.66-119.49,55.59-79.84,130.79-122.64,217.49-123.76,84.26-3.98,153.21,20.6,204.68,72.92,93.74,95.29,98.42,249.65,98.6,272.79,1.85,5.55,2.13,13.4-1.89,21.72-15.01,31.05-83.23,53.96-202.79,68.11-33.06,3.91-66.69,5.8-99.99,5.62-170.81-.91-284.1-54.47-288.83-56.75Zm567.82-32.57l.04-3.71c.02-1.63,.74-163.75-91.23-257.23-46.22-46.99-108.66-68.97-185.4-65.28h-.46c-79.06,.97-145.19,38.71-196.56,112.18-39.07,55.87-54.47,112.45-54.62,113.01l-.68,1.92c-.24,.56-23.83,54.49-21.09,111.54,26.43,11.23,128.98,50.49,271.14,51.25,32.26,.17,64.84-1.67,96.85-5.45,142.63-16.87,174.46-41.87,181.53-51.82,1.62-2.28,1.82-3.67,1.84-4.21l-1.36-2.19Z"/></g><g><path class="cls-12" d="M3282.2,3340.23l1.32,4.36,158.1,301.08s66.27,40.69,123.81-16.72l-92.14-330.82s-150.89,19.93-191.08,42.11Z"/><path class="cls-35" d="M3473.28,3298.12l2.75,26.65c-43.87,7.82-94.39,18.71-115.2,30.2l1.32,4.35,156.92,297.18c-41.75,11.04-77.46-10.84-77.46-10.84l-158.1-301.08-1.32-4.36c40.19-22.18,191.08-42.11,191.08-42.11Z"/><path class="cls-43" d="M3473.28,3298.12l1.45,14.13c-47.82,7.65-120.78,21.13-146.92,35.55l1.32,4.35,158.09,301.07s4.94,3.02,13.24,6.25c-33.21,1.9-58.85-13.82-58.85-13.82l-158.1-301.08-1.32-4.36c40.19-22.18,191.08-42.11,191.08-42.11Z"/><path class="cls-15" d="M3434.91,3656.58l-4.16-2.54-163.84-320.02,9.09-5.02c41.83-23.08,189.35-42.77,195.6-43.59l13.08-1.73,94.12,350.01-4.32,4.31c-22.77,22.73-49.37,34.32-79.08,34.46-33.96,.17-59.44-15.23-60.5-15.89Zm26.98-343.95c-44.05,6.31-128,20.3-164.19,34.56l154.63,289.65c7.24,3.5,23.47,10.09,42.94,9.99,20.89-.1,39.95-7.79,56.75-22.85l-90.13-311.35Z"/></g></g></g><g><rect class="cls-29" x="4305.11" y="2222.95" width="248.83" height="147.95"/><path class="cls-26" d="M4553.94,2200.49h-248.83c-12.4,0-22.46,10.05-22.46,22.46v147.96c0,12.4,10.05,22.46,22.46,22.46h248.83c12.4,0,22.46-10.05,22.46-22.46v-147.96c0-12.4-10.05-22.46-22.46-22.46Zm0,170.41h-248.83v-147.96h248.83v147.96Z"/><rect class="cls-17" x="4506.86" y="2024.56" width="154.68" height="544.74"/><path class="cls-19" d="M4661.54,2002.1h-154.68c-12.4,0-22.46,10.05-22.46,22.46v544.74c0,12.4,10.05,22.46,22.46,22.46h154.68c12.4,0,22.46-10.05,22.46-22.46v-544.74c0-12.4-10.05-22.46-22.46-22.46Zm0,567.2h-154.68v-544.74h154.68v544.74Z"/><rect class="cls-29" x="1789.87" y="2222.95" width="248.83" height="147.95"/><path class="cls-26" d="M2038.71,2200.49h-248.83c-12.4,0-22.46,10.05-22.46,22.46v147.96c0,12.4,10.05,22.46,22.46,22.46h248.83c12.4,0,22.46-10.05,22.46-22.46v-147.96c0-12.4-10.05-22.46-22.46-22.46Zm0,170.41h-248.83v-147.96h248.83v147.96Z"/><rect class="cls-17" x="1682.27" y="2024.56" width="154.68" height="544.74" transform="translate(3519.22 4593.86) rotate(180)"/><path class="cls-19" d="M1836.95,2002.1h-154.68c-12.4,0-22.46,10.05-22.46,22.46v544.74c0,12.4,10.05,22.46,22.46,22.46h154.68c12.4,0,22.46-10.05,22.46-22.46v-544.74c0-12.4-10.05-22.46-22.46-22.46Zm0,567.2h-154.68v-544.74h154.68v544.74Z"/><circle class="cls-17" cx="3177.88" cy="2296.93" r="1183.64"/><circle class="cls-17" cx="3177.88" cy="2296.93" r="1183.64"/><path class="cls-40" d="M4361.53,2296.94c0,653.69-529.95,1183.64-1183.64,1183.64-351.73,0-667.68-153.47-884.5-397.06,137.33,55.75,287.44,86.42,444.74,86.42,653.69,0,1183.64-529.95,1183.64-1183.64,0-301.96-113.05-577.43-299.14-786.58,433.31,175.8,738.9,600.83,738.9,1097.22Z"/><path class="cls-19" d="M4030.72,1444.09c-227.8-227.8-530.68-353.26-852.84-353.26s-625.04,125.46-852.84,353.26c-227.8,227.8-353.26,530.68-353.26,852.84s125.46,625.04,353.26,852.84c227.8,227.8,530.68,353.26,852.84,353.26s625.04-125.46,852.84-353.26c227.8-227.8,353.26-530.68,353.26-852.84s-125.46-625.04-353.26-852.84Zm-852.84,2036.48c-653.71,0-1183.64-529.93-1183.64-1183.64s529.93-1183.64,1183.64-1183.64,1183.64,529.93,1183.64,1183.64-529.93,1183.64-1183.64,1183.64Z"/><circle class="cls-29" cx="3177.88" cy="2296.93" r="1028.96"/><path class="cls-46" d="M4206.85,2296.94c0,568.28-460.68,1028.96-1028.96,1028.96-203.77,0-393.69-59.25-553.55-161.41,37.46,3.63,75.39,5.45,113.79,5.45,653.69,0,1183.64-529.95,1183.64-1183.64,0-178.89-39.68-348.5-110.76-500.49,240.96,188.31,395.85,481.59,395.85,811.13Z"/><path class="cls-36" d="M4123.93,2296.94c0,156.03-37.73,303.17-104.65,432.9-19.91,38.6-42.37,75.66-67.25,110.97-39.28,55.75-84.4,107.13-134.5,153.13-21.52,19.71-43.98,38.54-67.25,56.22-42.17,32.15-87.16,60.8-134.5,85.55-21.92,11.43-44.39,22.13-67.25,31.88-43.31,18.43-88.23,33.76-134.5,45.6-22.13,5.72-44.52,10.63-67.25,14.66-54.81,9.89-111.23,15.06-168.87,15.06s-113.05-5.04-167.39-14.8c-22.73-4.03-45.13-8.88-67.25-14.53-46.27-11.77-91.19-27.04-134.5-45.4-.27-.13-.47-.2-.74-.34-22.6-9.55-44.86-20.11-66.51-31.41-47.35-24.61-92.34-53.13-134.5-85.14-23.27-17.62-45.73-36.38-67.25-56.02-50.1-45.8-95.16-96.84-134.5-152.33-24.82-35.04-47.28-71.89-67.25-110.23-67.79-130.4-106.12-278.63-106.12-435.8s38.27-305.32,106.12-435.73c19.91-38.4,42.44-75.25,67.25-110.29,39.28-55.48,84.4-106.6,134.5-152.39,21.52-19.64,43.98-38.4,67.25-56.02,42.17-32.01,87.16-60.53,134.5-85.14,21.92-11.43,44.39-22.06,67.25-31.74,43.31-18.36,88.23-33.63,134.5-45.4,22.13-5.65,44.52-10.49,67.25-14.53,54.34-9.75,110.29-14.8,167.39-14.8s114.06,5.18,168.87,15.06c22.73,4.04,45.13,8.94,67.25,14.66,46.27,11.84,91.19,27.17,134.5,45.6,22.87,9.75,45.33,20.44,67.25,31.88,47.35,24.75,92.34,53.4,134.5,85.54,23.27,17.69,45.73,36.52,67.25,56.22,20.18,18.56,39.61,38,58.17,58.31,27.44,29.93,52.93,61.6,76.33,94.83,24.88,35.31,47.35,72.36,67.25,111.03,66.92,129.73,104.65,276.88,104.65,432.9Z"/><path class="cls-45" d="M4123.93,2296.94c0,156.03-37.73,303.17-104.65,432.9-19.91,38.6-42.37,75.66-67.25,110.97-39.28,55.75-84.4,107.13-134.5,153.13-21.52,19.71-43.98,38.54-67.25,56.22-42.17,32.15-87.16,60.8-134.5,85.55-21.92,11.43-44.39,22.13-67.25,31.88-43.31,18.43-88.23,33.76-134.5,45.6-22.13,5.72-44.52,10.63-67.25,14.66-54.81,9.89-111.23,15.06-168.87,15.06s-113.05-5.04-167.39-14.8c-22.73-4.03-45.13-8.88-67.25-14.53-46.27-11.77-91.19-27.04-134.5-45.4-.27-.13-.47-.2-.74-.34,621.14-36.11,1113.76-551.33,1113.76-1181.55,0-113.86-16.07-223.95-46.07-328.12,27.44,29.93,52.93,61.6,76.33,94.83,24.88,35.31,47.35,72.36,67.25,111.03,66.92,129.73,104.65,276.88,104.65,432.9Z"/><rect class="cls-29" x="3145.01" y="1294.88" width="67.25" height="2004.12"/><path class="cls-29" d="M4180.69,2263.32v67.25h-161.41v399.28c-19.91,38.6-42.37,75.66-67.25,110.97v-510.24h-134.5v663.38c-21.52,19.71-43.98,38.54-67.25,56.22v-719.6h-134.5v805.14c-21.92,11.43-44.39,22.13-67.25,31.88v-837.02h-134.5v882.62c-22.13,5.72-44.52,10.63-67.25,14.66v-897.28h-336.26v897.55c-22.73-4.03-45.13-8.88-67.25-14.53v-883.02h-134.5v837.63c-.27-.13-.47-.2-.74-.34-22.6-9.55-44.86-20.11-66.51-31.41v-805.88h-134.5v720.74c-23.27-17.62-45.73-36.38-67.25-56.02v-664.72h-134.5v512.39c-24.82-35.04-47.28-71.89-67.25-110.23v-402.17h-161.41v-67.25h161.41v-402.1c19.91-38.4,42.44-75.25,67.25-110.29v512.39h134.5v-664.79c21.52-19.64,43.98-38.4,67.25-56.02v720.81h134.5v-805.95c21.92-11.43,44.39-22.06,67.25-31.74v837.69h134.5v-883.09c22.13-5.65,44.52-10.49,67.25-14.53v897.61h336.26v-897.35c22.73,4.04,45.13,8.94,67.25,14.66v882.68h134.5v-837.09c22.87,9.75,45.33,20.44,67.25,31.88v805.21h134.5v-719.67c23.27,17.69,45.73,36.52,67.25,56.22v663.44h134.5v-510.31c24.88,35.31,47.35,72.36,67.25,111.03v399.28h161.41Z"/><path class="cls-21" d="M2808,3167.86c.27,.07,.47,0,.74,0v.34c-.27-.13-.47-.2-.74-.34Z"/><path class="cls-46" d="M2943.25,3152.19c22.66-3.9,45.06-8.54,67.25-13.79v89.71c-22.73-4.03-45.13-8.88-67.25-14.53v-61.4Z"/><path class="cls-46" d="M3346.76,3001.68c22.93-13.79,45.4-28.31,67.25-43.58v255.09c-22.13,5.72-44.52,10.63-67.25,14.66v-226.17Z"/><path class="cls-46" d="M3615.77,2780.55v355.16c-21.92,11.43-44.39,22.13-67.25,31.88v-318.57c23.34-21.92,45.73-44.79,67.25-68.46Z"/><path class="cls-46" d="M3750.28,2600.25c24.88-40.96,47.41-83.53,67.25-127.58v521.27c-21.52,19.71-43.98,38.54-67.25,56.22v-449.92Z"/><path class="cls-46" d="M4180.69,2263.32v67.25h-161.41v399.28c-19.91,38.6-42.37,75.66-67.25,110.97v-510.24h-81.11c6.73-22.13,12.78-44.59,18.23-67.25h62.88v-510.31c24.88,35.31,47.35,72.36,67.25,111.03v399.28h161.41Z"/><path class="cls-46" d="M3212.26,3071.15v227.85h-67.25v-200.88c22.8-8.27,45.19-17.28,67.25-26.97Z"/></g><g><g class="cls-39"><path class="cls-50" d="M2677.03,2428.32s65.88,24.93,94.07,79.14c12.19,9.28,15.63,5.01,36.91-2.49,21.28-7.48,119.01-64.31,203.38-1.08-133.74,40.31-192.03,46.64-222.55,44.82-30.53-1.82-76.33-58.12-111.8-120.38Z"/></g><g class="cls-11"><path class="cls-22" d="M3659.88,1913.52c-160.54,93.17-391.12,25.65-493.5-57.05-95.41,103.8-60.91,336.68-60.91,336.68l471.44,138.86c48.75-56.39,155.83-246.66,82.97-418.49Z"/></g><g class="cls-31"><path class="cls-51" d="M2843.02,1903.58c-121.42,51.91-383.18,67.34-458.59,40.45-37.05,227.94,53.48,328.37,103.16,389.57l366.67-218.31s10.73-160.85-11.24-211.71Z"/></g><path class="cls-15" d="M2731.71,2555.36s.97,2.03,1.82,5.9c.83,3.86,1.47,9.56,.74,16.5-.74,6.9-3.04,15.01-7.5,22.75-2.23,3.86-4.91,7.66-8.04,11.13-1.56,1.75-3.2,3.43-4.93,5.04l-2.67,2.32c-.53,.49-1.76,1.53-2.11,1.92-2.33,2.2-4.14,4.72-4.87,6.92-.79,2.23-.84,4.6-.13,7.42,.72,2.8,2.18,5.76,3.86,8.56,1.71,2.79,3.63,5.44,5.53,7.88,3.79,4.88,7.45,8.87,9.96,11.77,2.59,2.92,4.07,4.58,4.07,4.58,0,0-2.26-.37-5.98-1.7-1.88-.63-4.11-1.52-6.58-2.74-2.51-1.16-5.27-2.68-8.14-4.61-2.87-1.94-5.89-4.28-8.8-7.29-2.89-3.02-5.78-6.67-7.78-11.52-2.05-4.72-2.87-11.13-1.06-17.04,1.78-5.95,5.45-10.49,9.49-14.04,1.22-1.1,1.72-1.36,2.83-2.26l2.31-1.79c1.47-1.25,2.97-2.47,4.37-3.76,2.78-2.62,5.38-5.33,7.65-8.18,4.58-5.68,8.04-11.76,10.4-17.41,2.43-5.63,3.76-10.76,4.55-14.44,.81-3.68,1.02-5.92,1.02-5.92Z"/><g><path class="cls-5" d="M2743.66,2311.3c21.07-8.7,32.58-26.93,32.58-26.93l2.2-3.52,7.34-12.8c2.51-4.25,4.85-8.56,7.09-12.95,2.26-4.36,4.63-8.68,6.8-13.09l6.4-13.3c2.24-4.38,4.07-8.95,6.14-13.42,2.06-4.47,4.02-8.99,5.8-13.58,3.82-9.08,7.14-18.36,10.46-27.63l4.6-14.05c1.51-4.7,2.84-9.44,4.27-14.17,2.69-9.49,5.13-19.07,7.22-28.74,.34-1.57,.63-3.15,.96-4.73-6.29-22.08-17.33-43.19-33.26-61.75-58.9-68.58-162.24-76.43-230.82-17.53-68.58,58.9-76.43,162.24-17.53,230.82,45.54,53.02,118.73,72.55,179.71,47.37Z"/><path class="cls-15" d="M2853.63,1998.61c2.65,9.71,4.17,19.72,5.37,29.74,1.1,10.04,1.74,20.15,1.92,30.28,.23,10.13-.19,20.26-.72,30.41-.71,10.12-1.6,20.26-3.09,30.31-1.43,10.07-3.22,20.09-5.28,30.06-1.12,4.97-2.14,9.96-3.34,14.91l-3.9,14.78c-2.94,9.76-5.86,19.53-9.33,29.12-1.6,4.85-3.39,9.63-5.27,14.37-1.88,4.74-3.56,9.58-5.63,14.23l-6.14,14.02c-2.11,4.65-4.42,9.19-6.63,13.8-2.18,4.61-4.47,9.17-6.92,13.64l-7.2,13.51-7.68,13.23-3.84,6.62-4.09,6.46-8.31,12.85c-2.84,4.23-5.82,8.37-8.73,12.56-5.72,8.45-11.96,16.49-18.11,24.62-3.02,4.1-6.22,8.07-9.46,12l-9.65,11.84c-6.51,7.83-13.46,15.26-20.18,22.9l-21.07,22.05,2.61-12.48c5.53,14.62,13.58,28.93,22.56,42.49,8.98,13.59,19.18,26.49,30.43,38.17,11.26,11.59,23.75,22.14,37.21,29.29,3.37,1.7,6.8,3.3,10.24,4.35l.65,.22,.16,.06,.08,.03c.3,.08-.32-.07-.22-.05l.39,.1,1.54,.39c.81,.14,1.22,.28,2.2,.41,1.71,.27,3.58,.44,5.49,.55,7.68,.44,15.94-.03,24.15-.73,16.47-1.57,33.17-3.88,49.79-6.72,16.62-2.84,33.23-6.07,49.85-9.32,16.62-3.31,33.19-6.9,49.8-10.41l49.78-10.96c-15.98,5.84-32.1,11.27-48.31,16.45-8.11,2.58-16.2,5.22-24.36,7.63l-24.5,7.19c-16.37,4.74-32.86,9.05-49.51,12.98-16.66,3.86-33.39,7.63-50.65,9.95-8.66,1.14-17.36,2.08-26.66,2.01-2.33-.02-4.7-.12-7.19-.4-1.14-.08-2.81-.38-4.1-.59l-1.56-.32-.39-.08-.74-.2-.88-.24c-4.74-1.21-9.16-2.98-13.45-4.89-8.52-3.94-16.32-8.78-23.49-14.23-7.2-5.42-13.94-11.28-20.28-17.47-12.68-12.4-24.04-25.9-34.21-40.33-5.08-7.23-9.76-14.74-14.13-22.5-4.36-7.77-8.29-15.86-11.68-24.39l-2.71-6.83,5.33-5.65,20.33-21.54c6.5-7.42,13.11-14.77,19.52-22.25l9.46-11.36c3.19-3.77,6.33-7.57,9.28-11.51,6.02-7.8,12.15-15.53,17.75-23.63,2.85-4.01,5.78-7.98,8.56-12.03l8.14-12.32,4.12-6.13,3.9-6.26,7.82-12.52,7.34-12.8c2.51-4.25,4.85-8.56,7.09-12.95,2.26-4.36,4.63-8.68,6.8-13.09l6.4-13.3c2.24-4.38,4.07-8.95,6.14-13.42,2.06-4.47,4.02-8.99,5.8-13.58,3.82-9.08,7.14-18.36,10.46-27.63l4.6-14.05c1.51-4.7,2.84-9.44,4.27-14.17,2.69-9.49,5.13-19.07,7.22-28.74,2.07-9.66,3.92-19.38,5.51-29.17,1.45-9.8,2.72-19.65,3.48-29.56,.92-9.9,1.41-19.85,1.42-29.82,.08-9.97-.22-19.98-1.38-29.95Z"/><path class="cls-15" d="M2705.68,2322.73c3.17-.35,6.09-1.2,8.85-1.75,2.76-.68,5.36-1.1,7.71-1.93,4.71-1.54,8.76-2.58,11.87-3.87,6.23-2.53,9.56-3.88,9.56-3.88,0,0-3.49,.82-10.04,2.36-3.26,.85-7.38,1.28-12.09,2.12-2.33,.48-4.97,.51-7.7,.81-2.75,.2-5.63,.7-8.73,.66-12.3,.7-27.29-.34-43.8-3.9-16.5-3.62-34.32-10.73-51.61-21.59-2.21-1.27-4.31-2.76-6.39-4.34-2.09-1.53-4.2-3.08-6.34-4.64-2.01-1.72-4.03-3.45-6.08-5.21-1.02-.88-2.07-1.72-3.06-2.64l-2.88-2.89c-1.93-1.93-3.86-3.88-5.81-5.84-1.83-2.09-3.67-4.18-5.52-6.31l-1.39-1.58-.54-.62h0l-.17-.24-.33-.45-2.68-3.66c-1.79-2.45-3.58-4.91-5.4-7.4-.98-1.25-1.7-2.47-2.36-3.69l-2.1-3.65c-1.41-2.43-2.82-4.88-4.25-7.34-1.22-2.68-2.44-5.37-3.67-8.09-1.2-2.72-2.62-5.36-3.45-8.26-1.86-5.72-4.13-11.34-5.33-17.35-.69-2.97-1.52-5.92-2.11-8.94-.44-3.05-.87-6.11-1.31-9.18-3.52-24.61,.1-50.65,8.96-74.85,5.01-11.87,10.69-23.67,18.61-34.08,3.48-5.54,8.18-10.15,12.33-15.2,2.16-2.45,4.72-4.54,7.05-6.84l3.56-3.38,.89-.85,.45-.42s0,0,.02-.02l2.06-1.59,8.46-6.59,2.11-1.65c.69-.49,1.35-.84,2.01-1.26l3.98-2.46c2.72-1.58,5.1-3.45,8.08-4.86l8.76-4.35c2.85-1.6,5.99-2.55,9.01-3.74,3.07-1.07,6.01-2.51,9.15-3.35,6.27-1.65,12.44-3.74,18.87-4.55,12.69-2.58,25.62-2.7,38.29-2.14,6.3,.79,12.66,1.07,18.76,2.63,3.06,.69,6.17,1.17,9.18,1.96,2.99,.91,5.97,1.81,8.93,2.71,1.48,.46,2.98,.85,4.44,1.37l4.27,1.77c2.85,1.17,5.69,2.33,8.51,3.49,2.73,1.35,5.37,2.84,8.06,4.24,2.65,1.44,5.45,2.64,7.88,4.41,4.95,3.37,10.2,6.27,14.6,10.21,2.3,1.85,4.58,3.68,6.85,5.51,2.2,1.9,4.15,4.05,6.23,6.05,1.96,1.94,3.91,3.87,5.85,5.79,1.94,2.32,3.88,4.63,5.79,6.92,.93,1.14,2.01,2.3,2.79,3.4l2.32,3.29c1.53,2.22,3.16,4.3,4.66,6.52,2.74,4.7,5.91,9.1,8.11,13.91,1.2,2.36,2.39,4.7,3.56,7.02,.99,2.4,1.97,4.79,2.94,7.14,3.04,7.53,5.36,15.06,7.11,22.46,.89-3.64,1.79-7.28,2.58-10.96,1.49-6.94,2.82-13.93,4.06-20.93-.44-1.34-.86-2.66-1.3-4.01-1.09-2.67-2.2-5.36-3.31-8.07-2.06-5.53-5.12-10.71-7.81-16.21-1.52-2.71-3.26-5.39-4.97-8.09l-2.59-4.07c-.87-1.36-1.77-2.43-2.66-3.66-1.79-2.39-3.58-4.8-5.4-7.24l-.34-.46-.66-.76-.8-.91-1.62-1.8-3.26-3.63c-17.47-19.29-40.45-36.44-67.76-46.04-3.41-1.18-6.83-2.36-10.27-3.56-3.47-1.08-7.07-1.78-10.63-2.67-7.09-1.97-14.48-2.61-21.84-3.7-14.81-1.2-30.05-1.33-45.07,1.46-7.6,.89-14.94,3.13-22.4,5.02-3.72,.96-7.27,2.5-10.9,3.77-3.59,1.39-7.3,2.55-10.71,4.38l-10.42,5.11c-3.48,1.65-6.87,4.09-10.3,6.12l-5.11,3.22c-.83,.54-1.75,1.08-2.51,1.62l-2.13,1.64-8.49,6.55-2.11,1.65-.26,.2c-1.18,.95-.48,.4-.82,.68l-.52,.5-1.06,1-4.21,4.01c-2.75,2.72-5.71,5.25-8.26,8.15-4.96,5.96-10.38,11.54-14.53,18.09-2.17,3.2-4.5,6.29-6.5,9.58l-5.57,10.12c-1.97,3.31-3.46,6.84-4.94,10.38-1.47,3.53-3.1,7-4.4,10.57-2.19,7.29-4.99,14.39-6.25,21.85-.73,3.7-1.62,7.36-2.19,11.05-.41,3.73-.83,7.44-1.24,11.14-.17,1.85-.48,3.69-.53,5.54l-.09,5.56c-.04,3.7-.16,7.38-.1,11.04,.3,3.65,.61,7.29,.91,10.92l.48,5.42,.97,5.34c.66,3.54,1.31,7.07,1.96,10.58,.82,3.47,1.91,6.87,2.85,10.27,1.66,6.88,4.6,13.28,7.15,19.69,1.17,3.25,2.94,6.22,4.49,9.26,1.59,3.01,3.17,6.01,4.74,8.99,1.9,2.9,3.79,5.78,5.67,8.64l2.84,4.24c.93,1.44,1.89,2.81,2.87,3.92,1.95,2.38,3.89,4.74,5.81,7.08l2.88,3.5,1.04,1.26,.83,.86,1.66,1.7c2.21,2.26,4.41,4.5,6.59,6.72,2.26,2.13,4.68,4.07,6.99,6.08l3.47,2.96c1.18,.94,2.43,1.8,3.64,2.68,2.42,1.77,4.82,3.51,7.2,5.24,2.5,1.55,4.97,3.09,7.42,4.6,2.43,1.54,4.88,2.99,7.42,4.21,19.89,10.62,39.95,16.23,57.83,18.29,17.91,2.16,33.62,1.14,46.16-1.08Z"/></g><g><path class="cls-15" d="M2821.9,2163.72c6.15,43.86-24.43,84.39-68.29,90.54-43.85,6.14-84.39-24.43-90.53-68.29-6.14-43.86,24.43-84.39,68.28-90.54,43.86-6.14,84.39,24.43,90.54,68.29Z"/><path class="cls-5" d="M2816.04,2099.92c3.27,23.35-13.01,44.93-36.35,48.2-23.35,3.27-44.93-13.01-48.2-36.35-3.27-23.35,13.01-44.93,36.36-48.2,23.35-3.27,44.93,13,48.2,36.35Z"/><path class="cls-5" d="M2727.54,2219.31c1.1,7.89-4.4,15.17-12.28,16.28-7.89,1.11-15.18-4.4-16.28-12.28-1.11-7.89,4.39-15.18,12.29-16.28,7.88-1.11,15.17,4.39,16.28,12.28Z"/></g><g><path class="cls-5" d="M3455.96,2047.35c-61.9-71.27-169.85-78.86-241.12-16.97-55.11,47.87-68.41,122.01-48.42,187.93,13.71,45.22,74.07,88.62,74.07,88.62,61.53,36.06,141.68,30.89,198.5-18.47,71.27-61.9,78.87-169.84,16.97-241.11Z"/><path class="cls-15" d="M3166.43,2218.31s-1.42-3.46-4.07-9.96c-1.36-3.24-2.46-7.47-4.07-12.37-.87-2.45-1.32-5.16-2.04-8.04-.58-2.88-1.49-5.93-1.86-9.23-2.35-13.08-3.46-29.47-1.27-48.14,2.07-18.66,7.86-39.58,18.83-60.36,1.27-2.66,2.77-5.21,4.37-7.75,1.56-2.56,3.15-5.14,4.76-7.75,1.79-2.48,3.6-5,5.43-7.53,.92-1.26,1.81-2.56,2.78-3.8l3.07-3.63c2.08-2.41,4.09-4.93,6.3-7.3,2.3-2.28,4.63-4.58,6.97-6.89l1.76-1.74,.89-.87,1.29-1.08,3.64-3.01c2.44-2.03,4.89-4.06,7.36-6.11,1.16-1.03,2.59-2.02,4.09-3.01l4.39-2.97c2.97-1.96,5.95-3.95,8.96-5.93,3.09-1.65,6.2-3.31,9.34-4.98,3.15-1.63,6.23-3.48,9.62-4.72,6.66-2.69,13.3-5.78,20.47-7.54,3.54-1,7.07-2.14,10.68-3.02,3.65-.7,7.32-1.4,11-2.1l5.55-1.03,5.65-.53c3.77-.33,7.56-.67,11.37-1,3.81-.07,7.64,.03,11.49,.05l5.78,.07c1.93,.04,3.85,.35,5.77,.52,3.86,.41,7.72,.83,11.61,1.23,3.86,.58,7.67,1.49,11.52,2.23,7.77,1.26,15.17,4.15,22.78,6.39,3.73,1.33,7.34,3.01,11.03,4.52,3.68,1.52,7.38,3.06,10.83,5.08l10.56,5.74c3.43,2.06,6.67,4.47,10.01,6.71,6.84,4.29,12.67,9.9,18.9,15.02,3.05,2.64,5.68,5.71,8.53,8.56l4.2,4.35,1.05,1.09,.52,.54c.28,.33-.26-.36,.7,.82l.22,.28,1.73,2.2,6.89,8.82,1.72,2.21c.57,.8,1.14,1.74,1.7,2.6l3.37,5.3c2.14,3.55,4.69,7.05,6.43,10.67l5.37,10.82c1.94,3.53,3.16,7.38,4.63,11.11,1.34,3.78,2.98,7.46,4,11.33,2,7.74,4.38,15.37,5.36,23.27,2.98,15.61,2.94,31.48,1.79,46.9-1.08,7.68-1.69,15.37-3.71,22.77-.9,3.71-1.6,7.46-2.7,11.08-1.22,3.59-2.43,7.16-3.64,10.71-9.81,28.49-27.5,52.53-47.48,70.86l-3.76,3.43-1.87,1.7-.93,.85-.78,.68-.47,.36c-2.53,1.91-5.03,3.81-7.52,5.7-1.27,.93-2.4,1.88-3.8,2.8l-4.22,2.72c-2.8,1.79-5.58,3.62-8.38,5.22-5.71,2.84-11.08,6.07-16.83,8.26-2.82,1.18-5.62,2.35-8.39,3.51-2.84,.94-5.66,1.87-8.45,2.8-5.5,2.03-11.2,3.04-16.59,4.47-5.48,1.1-10.88,1.98-16.14,2.64-10.58,1-20.62,1.31-30,.65-18.78-1.12-34.68-5.18-47.18-9.7-12.49-4.61-21.65-9.57-27.71-13.14-5.94-3.77-9.11-5.78-9.11-5.78,0,0,3.42,1.52,9.83,4.35,3.13,1.55,7.32,2.74,12.01,4.52,2.34,.93,4.98,1.58,7.74,2.35,2.78,.74,5.67,1.72,8.82,2.4,12.53,2.95,28.1,4.87,45.74,4.36,17.62-.63,37.4-4.07,57.2-12.16,2.46-1.03,4.95-2.06,7.46-3.11,2.43-1.24,4.87-2.49,7.33-3.75,5.03-2.33,9.62-5.66,14.53-8.55,2.33-1.58,4.51-3.3,6.82-4.9l3.44-2.45c1.16-.83,2.36-1.96,3.55-2.93,2.38-2.02,4.78-4.04,7.2-6.08,2-2.04,4.02-4.09,6.05-6.16,2.07-2.18,4.32-4.24,6.29-6.55,1.91-2.38,3.82-4.78,5.76-7.19,4.09-4.63,7.12-10.13,10.62-15.33,1.84-2.55,3.09-5.49,4.59-8.28,1.46-2.82,3.01-5.6,4.41-8.47,1.21-2.97,2.41-5.94,3.62-8.93l1.83-4.48c.54-1.53,.94-3.11,1.42-4.65,.93-3.11,1.86-6.24,2.8-9.37,.82-3.16,1.31-6.42,2.01-9.64,1.61-6.4,1.86-13.06,2.66-19.67,.52-13.28,.32-26.84-2.45-40.12-.89-6.74-3.12-13.19-4.88-19.75-.89-3.29-2.42-6.37-3.56-9.57-1.27-3.16-2.28-6.44-3.97-9.43l-4.61-9.17c-1.49-3.11-3.47-5.6-5.15-8.46l-2.6-4.16c-.46-.7-.83-1.38-1.34-2.1l-1.73-2.2-6.93-8.8-1.72-2.21-.21-.28c.83,.98,.1,.14,.23,.3l-.45-.47-.89-.93-3.57-3.71c-2.41-2.43-4.62-5.09-7.21-7.34-5.31-4.32-10.18-9.21-16-12.83-10.95-8.24-23.36-14.12-35.84-19.3-25.43-9.12-52.74-12.75-78.5-8.89-3.22,.47-6.41,.95-9.61,1.42-3.15,.64-6.25,1.54-9.35,2.28-6.29,1.29-12.16,3.71-18.14,5.71-3.03,.89-5.78,2.39-8.63,3.67-2.83,1.31-5.64,2.61-8.44,3.9-2.58,1.52-5.13,3.02-7.67,4.51l-3.82,2.23c-1.27,.7-2.54,1.46-3.84,2.5-2.58,1.91-5.14,3.81-7.68,5.7l-3.8,2.81-.47,.35-.24,.18c-.42,.34,.32-.28,.16-.14l-.82,.73-1.65,1.47c-2.2,1.96-4.39,3.89-6.57,5.81-2.03,2.07-4.06,4.11-6.07,6.13l-3,3.05c-.96,1.05-1.83,2.16-2.75,3.23-1.82,2.15-3.62,4.29-5.39,6.4-1.62,2.24-3.23,4.48-4.82,6.67-1.63,2.18-3.17,4.4-4.49,6.72-11.23,18.16-18.52,36.87-22.17,54.14-3.58,17.29-4.54,32.96-3.71,45.81,0,3.24,.53,6.24,.77,9.11,.34,2.85,.4,5.6,.92,8.04,.92,4.92,1.42,9.21,2.33,12.6,1.67,6.82,2.56,10.45,2.56,10.45Z"/></g><g><path class="cls-15" d="M3415.65,2148.4c7.17,51.17-28.5,98.45-79.67,105.61-51.17,7.17-98.46-28.5-105.62-79.67-7.15-51.16,28.51-98.45,79.68-105.61,51.16-7.16,98.44,28.5,105.61,79.67Z"/><path class="cls-5" d="M3408.8,2073.97c3.82,27.24-15.17,52.41-42.41,56.22-27.24,3.82-52.42-15.17-56.23-42.41-3.82-27.24,15.18-52.42,42.41-56.23,27.24-3.81,52.41,15.17,56.23,42.41Z"/><path class="cls-5" d="M3305.56,2213.25c1.29,9.2-5.13,17.7-14.33,19-9.2,1.29-17.71-5.13-19-14.33-1.29-9.2,5.12-17.7,14.33-19,9.2-1.29,17.7,5.13,19,14.33Z"/></g><g><path class="cls-47" d="M2397.39,1942.28s180.76,128.88,329.62,81.32c90.88-38.16,138.81-135.4,138.81-135.4,0,0-.97-50.64-42.76-90.46,0,0-73.06,109.16-134.91,138.85-41.91,20.12-146.1,37.29-290.76,5.7Z"/><path class="cls-15" d="M2646.98,2045.93c-128.88-3.93-251.38-90.26-256.53-93.94l-47.41-33.81,56.89,12.42c45.44,9.93,89.76,15.61,131.74,16.89,73.58,2.24,126.4-9.73,151.3-21.68,58.23-27.95,129.44-133.66,130.15-134.72l7.89-11.78,10.27,9.78c44.87,42.75,46.41,96.6,46.46,98.87l.06,2.9-1.29,2.6c-2.04,4.13-50.98,101.69-144.9,141.13l-.99,.36c-25.63,8.19-53.77,11.88-83.65,10.97Zm-187.75-80.59c46.76,24.66,117.48,54.56,188.48,56.73,26.97,.82,52.24-2.44,75.15-9.69,76.95-32.56,122.37-111.1,130.81-126.75-.88-9.36-5.54-40.65-29.24-69-21.43,29.99-79.08,105.73-131.12,130.7-35.54,17.06-96.23,26.04-162.36,24.02-23.3-.71-47.27-2.73-71.72-6.02Z"/></g><g><path class="cls-47" d="M3678.72,1907.93s-168.32,141.59-343.75,113.22c-112.43-31.18-194.2-127.04-194.2-127.04,0,0-13.67-52.25,21.3-96.99,0,0,113.26,105.89,190.86,130.94,52.59,16.97,173.73,25.34,325.79-20.13Z"/><path class="cls-15" d="M3372.71,2036.69c-13.4-.41-26.75-1.67-39.65-3.76l-1.29-.28c-114.63-31.79-196.66-126.77-200.1-130.79l-1.77-2.08-.69-2.64c-.62-2.36-14.73-58.52,23.45-107.36l8.04-10.27,9.53,8.9c1.11,1.04,112.22,104.36,186.37,128.3,22.09,7.13,53.7,11.65,89,12.73,49.49,1.51,129.52-2.98,229.71-32.94l55.18-16.5-44.07,37.07c-6.05,5.09-150.09,124.62-313.69,119.63Zm-35.19-27.22c11.69,1.85,23.77,2.99,35.92,3.36,97.3,2.97,189.46-42.52,244.75-76.93-73.59,16.05-133.15,18.62-173.33,17.39h0c-37.47-1.14-71.42-6.07-95.6-13.87-66.27-21.39-155.06-97.39-185.08-124.24-18.49,31.39-14.17,64.09-12.41,73.35,12.79,14.16,87.84,93.54,185.75,120.95Z"/></g><path class="cls-15" d="M2677.95,2428.66s1.3-.25,3.81-.19c2.5,.09,6.18,.57,10.74,1.79,4.5,1.34,9.93,3.31,15.75,6.36,5.79,3.09,12.18,6.92,18.61,11.81,3.19,2.46,6.56,5,9.78,7.9,3.32,2.81,6.73,5.75,9.95,9.04,1.64,1.61,3.31,3.26,5,4.91,1.61,1.73,3.23,3.48,4.88,5.24,3.32,3.51,6.65,7.16,9.83,11.03,3.18,3.65,6.67,8.41,9.18,10.62,2.92,2.58,6.27,4.21,10.16,4.95,7.83,1.5,17.52-.48,27.07-3.23,9.59-2.86,19.35-6.45,29.1-9.95,9.74-3.49,19.55-6.8,29.25-9.47,9.68-2.76,19.28-4.93,28.55-6.12,9.25-1.3,18.13-1.75,26.3-1.32,16.38,.66,29.56,4.66,38.14,8.33,4.33,1.8,7.56,3.54,9.73,4.73,2.16,1.25,3.3,1.91,3.3,1.91,0,0-1.27-.36-3.65-1.02-2.37-.67-5.9-1.51-10.35-2.44-4.46-.89-9.92-1.67-16.15-2.16-6.24-.38-13.26-.43-20.85,.17-7.59,.7-15.74,1.91-24.25,3.9-8.5,2.02-17.37,4.62-26.49,7.73-9.1,3.16-18.45,6.79-28.1,10.47-9.67,3.64-19.58,7.49-30.16,10.47-5.31,1.48-10.77,2.79-16.56,3.43-5.76,.65-11.95,.75-18.17-.8-6.21-1.51-12.22-4.91-16.59-9.36-.57-.53-1.14-1.21-1.69-1.81l-.82-.94-.57-.75-2.41-3.18c-1.46-1.97-2.92-3.93-4.36-5.87-2.79-3.98-5.7-7.73-8.62-11.35-1.45-1.82-2.88-3.63-4.29-5.41-1.49-1.71-2.96-3.4-4.41-5.07-1.44-1.68-2.87-3.34-4.28-4.97-1.45-1.56-2.9-3.11-4.32-4.63-2.78-3.12-5.71-5.85-8.49-8.53-2.73-2.75-5.61-5.01-8.21-7.41-2.72-2.2-5.33-4.3-7.88-6.12-5.1-3.62-9.79-6.45-13.87-8.42-4.09-1.88-7.46-3.11-9.85-3.65-2.38-.56-3.71-.62-3.71-.62Z"/><path class="cls-15" d="M2773.42,2868.81s-.39-3.98-1.8-11.3c-1.36-7.32-3.96-17.95-8.27-31.07-4.33-13.12-10.78-28.62-19.8-45.42-9.05-16.79-21.18-34.61-36.42-52.18-1.88-2.21-3.86-4.39-5.9-6.55-2.05-2.38-3.82-3.61-6.84-8.05-2.32-3.56-4.09-8.1-4.37-12.93-.27-4.8,.85-9.54,2.66-13.48,3.71-7.89,9.21-13.53,14.95-18.33,5.79-4.75,11.98-8.7,18.37-12.23,12.83-7.03,26.51-12.45,40.67-17.08,14.17-4.64,28.91-8.21,44-11.01,30.17-5.58,61.77-8.61,93.87-8.49,32.1,.15,64.68,2.93,96.83,8.38,32.13,5.62,63.74,14.11,93.99,24.87,30.31,10.62,58.92,24.34,85.47,39.43,26.6,15.03,50.74,32.18,72.29,49.9,10.78,8.87,20.95,17.85,30.39,26.94,9.41,9.13,18.17,18.26,26.27,27.27,16.26,17.99,29.84,35.58,41.04,51.67,11.31,16.01,20.16,30.61,27.12,42.78,7.04,12.12,11.87,22.02,15.29,28.67,3.24,6.76,4.97,10.35,4.97,10.35,0,0-2.21-3.31-6.36-9.54-4.19-6.19-10.4-15.22-18.58-26.45-8.19-11.22-18.55-24.53-30.94-39.27-6.22-7.34-13-15.01-20.41-22.85-7.36-7.86-15.19-16.01-23.69-24.18-8.49-8.17-17.6-16.39-27.3-24.54-9.66-8.19-19.83-16.42-30.65-24.38-21.63-15.93-45.58-31.05-71.32-44.82-25.76-13.76-53.62-25.48-82.5-35.57-28.93-10.01-59.19-17.61-89.84-22.9-30.6-5.52-61.69-8.5-92.31-8.95-30.6-.46-60.81,1.06-89.51,5.6-28.55,4.66-56.22,11.1-79.38,22.23-5.73,2.78-11.13,5.89-15.82,9.34-4.61,3.46-8.64,7.3-10.68,11-1.96,3.77-2.09,6.32-.31,9.82,.22,.9,2.93,3.99,4.75,6.29,1.99,2.41,3.92,4.85,5.75,7.31,14.96,19.48,25.75,39.34,33.66,57.44,7.96,18.13,12.64,34.75,15.71,48.49,3.07,13.77,4.14,24.8,4.68,32.28,.49,7.49,.28,11.49,.28,11.49Z"/><path class="cls-15" d="M2874.03,2854.81s-.43-1.98-1.19-5.44c-.77-3.38-1.89-8.22-3.22-14.01-2.87-11.44-6.87-26.37-12.9-40.23-3-6.94-6.5-13.58-10.31-19.49-1.9-2.97-3.87-5.74-5.88-8.29-.93-1.35-2.04-2.47-3-3.67-.94-1.23-1.96-2.31-2.95-3.36-1.93-2.14-3.9-3.91-5.58-5.64-1.79-1.6-3.36-2.98-4.66-4.13-2.72-2.16-4.28-3.54-4.28-3.54,0,0,1.98,.43,5.44,1.47,1.68,.59,3.73,1.37,6.05,2.4,2.21,1.15,4.86,2.35,7.41,4.16,5.31,3.33,10.97,8.2,15.98,14.31,1.27,1.51,2.51,3.1,3.65,4.78,1.21,1.64,2.33,3.36,3.37,5.15,2.19,3.51,3.99,7.3,5.72,11.1,1.59,3.86,3.08,7.75,4.19,11.68,1.2,3.91,2.04,7.83,2.76,11.61,1.37,7.61,1.85,14.78,1.77,20.9-.02,6.13-.63,11.22-1.2,14.73-.58,3.53-1.17,5.5-1.17,5.5Z"/><path class="cls-15" d="M2912.51,2855.98s-1.03-1.8-2.38-5.15c-1.4-3.34-3.06-8.21-4.5-14.24-.6-3.02-1.47-6.3-1.86-9.84-.23-1.77-.45-3.58-.69-5.44-.18-1.86-.24-3.78-.35-5.73-.31-3.9-.07-7.95,.07-12.06,.25-4.11,.86-8.28,1.48-12.43,1.04-4.1,1.63-8.29,3.14-12.22,1.4-3.94,2.64-7.85,4.61-11.34,1.79-3.57,3.53-6.98,5.8-9.87,2.16-2.95,4.01-5.81,6.41-7.96,2.2-2.28,4.3-4.25,6.14-5.98,2.04-1.53,3.92-2.74,5.43-3.74,3.02-2,4.8-2.99,4.8-2.99,0,0-1.12,1.81-3.16,4.7-1.02,1.44-2.24,3.18-3.67,5.08-1.18,2.14-2.49,4.52-4.01,6.98-1.65,2.38-2.68,5.44-4.15,8.36-1.56,2.88-2.62,6.21-3.85,9.56-1.4,3.26-2.14,6.92-3.24,10.48-.6,1.77-.94,3.64-1.32,5.5l-1.19,5.59c-.62,3.77-1.22,7.56-1.7,11.33-.32,3.78-.9,7.49-1.04,11.14-.13,1.82-.26,3.61-.39,5.37-.06,1.77-.13,3.49-.19,5.18-.21,3.37-.16,6.58-.29,9.56-.01,2.99-.02,5.74-.03,8.17,.02,2.46,.04,4.6,.05,6.37,.05,3.58,.06,5.63,.06,5.63Z"/><path class="cls-15" d="M3460.72,2855.1s-.08,.84-.24,2.4c-.23,1.53-.44,3.83-1,6.66-.99,5.72-2.74,13.78-5.75,23.18-3,9.42-7.16,20.2-13.2,31.33-3.03,5.57-6.51,11.23-10.93,16.79-2.3,2.76-4.6,5.6-7.64,8.23-2.94,2.64-6.34,5.31-11.12,7.39-1.11,.54-2.44,.96-3.87,1.3l-2.09,.5c-.75,.12-1.55,.18-2.34,.24l-2.35,.11h-.15l-.75-.03h-.15l-.3-.05-.6-.05-2.39-.23c-1.44-.09-3.47-.43-5.39-.83-1.9-.36-3.95-.73-5.49-1.18-3.32-.82-6.56-1.73-9.61-2.81-3.12-.99-6.08-2.08-8.99-3.24-11.58-4.55-21.78-9.76-30.28-14.67-8.5-4.91-15.28-9.57-19.91-13.03-2.36-1.67-4.1-3.19-5.32-4.14-1.19-1.02-1.83-1.56-1.83-1.56,0,0,3.35,.36,9.01,1.32,5.68,.92,13.68,2.44,23.08,4.52,9.4,2.05,20.23,4.71,31.57,7.35,5.65,1.31,11.49,2.6,17.14,3.62,1.52,.34,2.6,.4,3.84,.58,1.2,.16,2.3,.4,4.06,.48l2.39,.18,.6,.04,.3,.02h.15c.18,.03-1.16-.06-.59-.03h0s.02-.07,.04-.07c.02-.01,.02,.02,.05,.03,.08-.06,.15-.1,.24-.13,.14-.02,.33-.06,.67-.26,1.13-.39,2.98-1.57,4.78-3.17,1.81-1.52,3.77-3.43,5.62-5.42,3.72-4.09,7.33-8.64,10.76-13.19,6.85-9.14,13.13-18.26,18.65-26.06,5.51-7.83,10.28-14.4,13.76-18.97,1.66-2.32,3.15-4.07,4.08-5.31,.97-1.22,1.5-1.88,1.5-1.88Z"/></g><g><g><path class="cls-43" d="M4224.6,3234.63s74.33-367.23-244.96-765.23c19.47-55.21,72.12-69.81,107.26-49.66,161.38,147.6,340.08,469.24,330.33,799.32-135.96,10.59-192.63,15.57-192.63,15.57Z"/><path class="cls-35" d="M4053.99,2422.85s74.3,154.44,88.13,214.57c13.83,60.13,76.41,335.01,76.41,335.01,0,0-19.13,106.19,30.1,89.97,49.23-16.22,91.69-35.21,93.92-38.56,2.24-3.35-182.27-564.66-288.57-600.99Z"/><path class="cls-52" d="M4025.93,2429.96s-23.34-39.33,37.84-2.78c25.81,15.42,207.18,359.22,236.28,634.37,76.03,33.79,93.92-15.08,93.92-15.08,0,0-47.78-409.26-316.8-632.18-45.02-11.92-44.23-9.59-51.25,15.67Z"/><path class="cls-15" d="M4209.99,3247.7l3.11-15.38c.18-.91,17.97-92.27-3.03-230.45-19.36-127.45-76.64-322.01-239.58-525.12l-4.08-5.09,2.17-6.15c17.19-48.75,55.39-66.12,85.42-66.12,13.73,0,27.13,3.52,38.74,10.18l1.13,.65,.95,.87c173.23,158.44,343.64,486.97,334.14,808.33l-.31,10.53-10.51,.82c-134.31,10.46-191.95,15.51-192.51,15.55l-15.64,1.38Zm-216.97-780.34c163.34,205.73,220.93,402.69,240.43,532.17,16.62,110.26,9.49,190.16,5.11,222.15,23.98-2.03,77.59-6.48,167.19-13.47,5.31-310.31-158.71-625.44-325.77-778.88-7.82-4.24-16.77-6.47-25.99-6.47-20.78,0-47.07,11.83-60.97,44.5Z"/></g><g><g><path class="cls-25" d="M4459.01,3084.98c74.19,59.73,63.79,136.4,4.82,209.65-58.95,73.23-166.88,84.18-241.09,24.46-74.2-59.73-93.32-136.38-34.37-209.62,58.96-73.24,196.43-84.21,270.64-24.48Z"/><path class="cls-5" d="M4419.99,3092.19c63.91,51.46,54.95,117.51,4.15,180.63-50.79,63.09-143.78,72.52-207.71,21.07-63.93-51.46-80.4-117.5-29.61-180.61,50.79-63.1,169.24-72.55,233.17-21.09Z"/><path class="cls-15" d="M4331.57,3369.33c-41.99,0-83.25-14.6-116.19-41.11-82.89-66.73-96.41-151.26-36.15-226.12,33.96-42.18,93.44-67.36,159.12-67.36,49.63,0,95.09,14.6,128.02,41.1,38.44,30.95,57.53,67.67,56.72,109.12-.73,37.24-17.58,76.62-50.11,117.02-34.45,42.8-85.98,67.35-141.4,67.35Zm6.77-311.13c-57.77,0-111.74,22.46-140.84,58.61-51.81,64.37-39.93,134.76,32.59,193.13,28.77,23.17,64.82,35.92,101.48,35.92,48.27,0,93.14-21.35,123.12-58.59,42.49-52.78,76.45-129.15-3.04-193.16-28.77-23.16-69.01-35.91-113.31-35.91Z"/></g><g><path class="cls-5" d="M4584.58,3448.53c-30.4-152-178.06-277.99-178.06-277.99l-131.37-7.6c-117.26,49.89-156.34,169.42-181.31,270.39-24.97,100.97-115.08,29.31-135.71,94.46-20.62,65.14,74.91,115.08,122.68,100.97,47.77-14.11,90.12-46.68,97.72-97.71,16.28,70.57,16.28,189.99-13.03,217.14-82.51,57.54-137.88,97.71-118.34,130.28s100.97,60.8,172.62,16.28c27.15,17.37,97.71,7.6,145.48-31.49,81.43,11.94,147.65-69.48,186.74-112.91,39.08-43.43,62.96-149.82,32.57-301.82Z"/><path class="cls-3" d="M4465.1,3226.1s-78.37-61.58-132.58,17.53c-54.21,79.11-22.37,201.46-29.07,305.38-6.7,103.92,18.81,272.03-149.83,323.74,66.16,22,171.45,5.78,205.21-13.29,33.76-19.09,186.54-94.79,206.2-225.11,15.24-101,25.96-289.78-99.93-408.24Z"/><g><path class="cls-25" d="M4080.82,3628.75c47.77-14.11,90.12-46.68,97.72-97.71,.41,1.8,.82,3.65,1.21,5.51,.86-23.26-.41-45.18-4.51-62.97-7.6,51.03-78.2,99.59-125.98,113.7-25.14,7.43-63.51-2.9-91.21-23.84,14.6,46.36,84.23,76.7,122.78,65.31Z"/><path class="cls-25" d="M4584.58,3448.53c-15.77-78.83-63.07-150.66-104.96-201.55,31.82,45.45,61.53,100.79,73.39,160.09,30.4,151.99,6.52,258.39-32.57,301.82-39.09,43.43-48.33,110.35-129.76,98.4-47.77,39.09-110.37,58.28-137.51,40.91-56,34.79-157.63,28.26-208.7,8.2-2.22,7.77-1.5,15.1,2.69,22.08,19.54,32.57,100.97,60.8,172.62,16.28,27.15,17.37,97.71,7.6,145.48-31.49,81.43,11.95,147.65-69.48,186.74-112.91,39.08-43.43,62.96-149.82,32.57-301.82Z"/></g><path class="cls-15" d="M4140.14,3929.51c-15.44,0-28.53-2.19-38.01-4.48-29.81-7.21-54.12-22.36-65.03-40.53-25.75-42.94,38.88-88.19,120.95-145.43,19.35-19.21,23.96-96.89,16.19-163.06-18.06,29.24-49.49,51.99-90.1,63.99-33.48,9.89-85.21-7.02-115.29-37.69-22.73-23.17-30.51-50.9-21.9-78.08,11.54-36.46,42.36-39.04,67.11-41.11,30.34-2.54,56.55-4.73,68.39-52.62,28.47-115.13,70.96-228.52,188.11-278.37,0,0-128.56,106.34-165.33,284-13.42,64.81-58.27,67.78-89.21,70.37-26.22,2.19-40.2,4.29-46.7,24.81-7.51,23.72,4.71,42.77,16.28,54.57,23.8,24.27,66.74,39.04,91.88,31.61,24-7.09,80.75-29.88,89.43-88.19l9.12-61.23,13.92,60.32c16.53,71.59,18.32,196.16-16.49,228.39l-1.26,1.01c-63.7,44.42-129.56,90.35-114.99,114.62,7.5,12.51,27.3,24.21,50.42,29.8,20.94,5.06,62.53,9.52,105.95-17.44l6.29-3.9,6.23,3.99c21.29,13.63,85.99,6.75,131.73-30.69l4.01-3.28,5.12,.75c69.98,10.28,129.26-56.32,168.48-100.38,2.72-3.06,5.33-6,7.83-8.78,33.26-36.95,61.02-135.52,29.79-291.67-29.23-146.13-158.94-289.22-158.94-289.22,6.16,5.25,151.1,130.4,181.94,284.61,32.9,164.51,3.31,269.02-35.36,311.97-2.48,2.75-5.06,5.66-7.75,8.68-39.16,43.99-104.14,117-184.27,108.63-48.19,37.03-115.14,47.17-148.53,32.66-29.02,16.51-57.11,21.34-80.03,21.34Z"/></g><path class="cls-15" d="M4211.48,3886.47s.78-.73,2.25-2.11c1.42-1.37,3.61-3.46,6.32-6.18,5.42-5.42,13.08-13.35,21.83-23.29,4.38-4.96,8.99-10.45,13.78-16.33,2.35-2.98,4.75-6.05,7.22-9.17,2.37-3.2,4.79-6.46,7.26-9.78,2.36-3.39,4.75-6.84,7.17-10.34,2.29-3.58,4.61-7.19,6.95-10.84,2.25-3.7,4.38-7.5,6.6-11.28,2.12-3.83,4.04-7.76,6.09-11.66,1.96-3.93,3.61-7.98,5.42-11.96l.67-1.5,.56-1.44,1.18-3.13c.79-2.09,1.57-4.17,2.35-6.24,1.5-4.13,2.68-8.17,4.03-12.21,1.22-4.07,2.26-8.18,3.38-12.18,.94-4.06,1.85-8.05,2.74-11.95,.72-3.95,1.42-7.82,2.1-11.58,1.17-7.56,2.08-14.77,2.62-21.44,.55-6.68,.87-12.83,.94-18.29,.12-5.46,.03-10.22-.14-14.15-.31-7.85-.9-12.31-.9-12.31,0,0,.95,4.4,1.91,12.24,.48,3.91,.97,8.68,1.29,14.18,.37,5.49,.57,11.71,.56,18.49,0,6.79-.32,14.15-.88,21.94-.38,3.89-.78,7.87-1.19,11.96-.58,4.07-1.18,8.22-1.8,12.44-.81,4.2-1.52,8.47-2.45,12.8-1.04,4.3-1.99,8.78-3.16,13.08-.62,2.13-1.22,4.27-1.83,6.41l-.92,3.22-.51,1.74-.57,1.62c-1.55,4.31-2.96,8.73-4.65,13-1.8,4.23-3.48,8.54-5.37,12.7-1.98,4.12-3.89,8.28-5.92,12.32-2.13,3.99-4.23,7.95-6.31,11.86-2.22,3.83-4.41,7.61-6.56,11.34-2.28,3.65-4.51,7.23-6.7,10.74-2.29,3.45-4.51,6.82-6.69,10.11-4.45,6.49-8.76,12.57-12.88,18.07-8.21,11.03-15.48,19.9-20.71,26.05-2.61,3.09-4.7,5.45-6.19,7.12-1.48,1.64-2.27,2.51-2.27,2.51l-16.62-16.57Z"/><path class="cls-15" d="M4355.92,3856.17s.52-.63,1.5-1.8c.93-1.09,2.32-2.84,4.1-5.1,3.53-4.53,8.56-11.11,14.24-19.32,2.89-4.06,5.86-8.59,9.02-13.37,3.14-4.79,6.31-9.95,9.6-15.29,3.11-5.43,6.59-10.93,9.66-16.76,3.18-5.77,6.4-11.66,9.34-17.68,1.5-3.01,3-6.01,4.5-9,1.39-3.04,2.78-6.07,4.15-9.07,2.87-5.98,5.27-12.02,7.67-17.87,2.5-5.81,4.52-11.56,6.47-17.01,.99-2.73,1.94-5.39,2.87-7.96,.8-2.6,1.58-5.12,2.34-7.54,1.46-4.85,2.89-9.28,4.01-13.25,1-4,1.87-7.49,2.59-10.37,1.44-5.76,2.26-9.05,2.26-9.05,0,0-.46,3.36-1.27,9.24-.4,2.95-.9,6.53-1.46,10.64-.69,4.09-1.64,8.67-2.58,13.69-.49,2.51-.99,5.13-1.52,7.84-.65,2.68-1.32,5.45-2.01,8.3-1.37,5.71-2.78,11.75-4.67,17.88-1.77,6.16-3.56,12.57-5.8,18.93-1.07,3.2-2.14,6.43-3.22,9.67-1.19,3.21-2.38,6.42-3.57,9.63-2.33,6.47-4.95,12.81-7.57,19.06-2.49,6.3-5.42,12.28-8.01,18.21-2.78,5.83-5.46,11.48-8.15,16.76-2.72,5.28-5.28,10.28-7.81,14.8-4.95,9.13-9.45,16.57-12.67,21.78-1.62,2.59-2.93,4.64-3.91,6.1-.92,1.37-1.41,2.11-1.41,2.11l-18.69-14.18Z"/><path class="cls-15" d="M4481.82,3809.15s.49-.65,1.41-1.87c.86-1.13,2.17-2.94,3.85-5.29,3.31-4.69,8.01-11.51,13.28-19.99,2.7-4.2,5.44-8.86,8.36-13.8,2.91-4.94,5.82-10.25,8.85-15.73,2.84-5.58,6.05-11.24,8.83-17.21,2.9-5.92,5.83-11.95,8.47-18.11,1.36-3.08,2.71-6.15,4.06-9.21,1.24-3.11,2.48-6.2,3.71-9.26,2.57-6.11,4.68-12.26,6.79-18.22,2.22-5.92,3.95-11.77,5.64-17.32,.85-2.77,1.67-5.47,2.48-8.08,.68-2.64,1.33-5.2,1.96-7.65,1.23-4.91,2.44-9.41,3.37-13.43,.8-4.04,1.5-7.57,2.08-10.48,1.16-5.83,1.82-9.15,1.82-9.15,0,0-.3,3.38-.82,9.29-.26,2.97-.58,6.57-.94,10.69-.49,4.12-1.21,8.74-1.91,13.81-.37,2.53-.75,5.17-1.14,7.9-.53,2.71-1.06,5.51-1.61,8.39-1.09,5.77-2.2,11.87-3.8,18.08-1.47,6.24-2.94,12.72-4.87,19.19-.91,3.25-1.83,6.53-2.75,9.81-1.03,3.26-2.07,6.53-3.11,9.8-2.01,6.57-4.32,13.04-6.63,19.4-2.19,6.42-4.82,12.53-7.13,18.57-2.49,5.95-4.9,11.72-7.33,17.13-2.46,5.4-4.77,10.52-7.08,15.16-4.5,9.36-8.63,17-11.6,22.36-1.5,2.67-2.7,4.78-3.61,6.28-.85,1.42-1.3,2.18-1.3,2.18l-19.36-13.26Z"/></g></g></svg>