<?xml version="1.0" encoding="UTF-8"?>
<!-- Generator: Adobe Illustrator 26.3.1, SVG Export Plug-In . SVG Version: 6.00 Build 0)  -->
<svg xmlns="http://www.w3.org/2000/svg" xmlns:xlink="http://www.w3.org/1999/xlink" version="1.1" id="logo" x="0px" y="0px" viewBox="0 0 114 114" style="enable-background:new 0 0 114 114;" xml:space="preserve">
<style type="text/css">
	.iconsvg0{clip-path:url(#SVGID_00000028285231501404671900000007094395908169715110_);}
	.iconsvg1{fill:#FF8000;}
</style>
	<g id="Group_10">
	<g>
		<defs>
			<rect id="SVGID_1_" width="114" height="114"></rect>
		</defs>
		<clipPath id="SVGID_00000050625264799106194010000016972464624697822908_">
			<use xlink:href="#SVGID_1_" style="overflow:visible;"></use>
		</clipPath>
		<g id="Group_10-2" style="clip-path:url(#SVGID_00000050625264799106194010000016972464624697822908_);">
			<path id="Path_4" class="iconsvg1" d="M86.3,0H27.6C12.2,0.1-0.1,12.7,0,28v57.8c-0.1,15.4,12.2,27.9,27.6,28h58.7     c5.1,0,10.2-1.4,14.5-4.2L82.6,91.5c-19.1,14.1-46,10.1-60.1-8.9s-10.1-46,8.9-60.1s46-10.1,60.1,8.9c11.3,15.2,11.3,36,0,51.2     l18.2,18.2c2.8-4.5,4.2-9.6,4.2-14.9V28C114,12.7,101.7,0.1,86.3,0"></path>
			<path id="Path_5" class="iconsvg1" d="M35.5,35.5c-11.8,11.8-11.8,31,0,42.9c7.7,7.7,18.9,10.7,29.4,7.8L51.6,72.9     c-1.3,0.9-2.9,1.3-4.4,1.1c-1.9-0.2-3.7-1.3-4.7-3l-5.5-8.7c-0.2-0.2-0.2-0.5-0.2-0.8c0-0.3,0.2-0.5,0.4-0.7     c0.2-0.2,0.5-0.3,0.8-0.3c0.3,0,0.6,0.2,0.8,0.4l7.5,7.4l0.9-0.9l-6.8-8.6c-0.2-0.2-0.2-0.4-0.2-0.7c0-0.5,0.5-1,1-0.9     c0.2,0,0.4,0.1,0.6,0.2l8.6,6.8l0.9-0.9l-7.5-7.5c-0.2-0.2-0.3-0.5-0.3-0.8c0-0.6,0.4-1.1,1-1.2c0.3,0,0.6,0,0.8,0.2l8.7,5.5     c1.7,1,2.8,2.7,3,4.7c0.1,1.6-0.3,3.1-1.1,4.5l15.2,15.2c5.4-2.8,9.8-7.1,12.7-12.4L69.8,57.8c-0.9,0.7-2,1.1-3.1,1.3     c-3,0.3-6-1-8-3.3c-5-5-6.1-12-2.4-15.7S67,37.5,72,42.5c1.2,1,2.1,2.2,2.6,3.6c0.6,1.4,0.8,2.9,0.7,4.3     c-0.2,1.1-0.6,2.2-1.3,3.1l12,12c4.8-16.1-4.4-32.9-20.4-37.7C55,24.7,43.4,27.6,35.5,35.5"></path>
		</g>
	</g>
</g>
</svg>
