<?xml version="1.0" encoding="UTF-8"?>
<!-- Generator: Adobe Illustrator 26.3.1, SVG Export Plug-In . SVG Version: 6.00 Build 0)  -->
<svg xmlns="http://www.w3.org/2000/svg" xmlns:xlink="http://www.w3.org/1999/xlink" version="1.1" id="logo" x="0px" y="0px" viewBox="0 0 430 114" style="enable-background:new 0 0 430 114;" xml:space="preserve">
<style type="text/css">
	.logosvg0{fill:#2E2E2E;}
	.logosvg1{fill:#837D8E;}
	.logosvg2{clip-path:url(#SVGID_00000023270535658150463890000005187840833762822041_);}
	.logosvg3{fill:#FF8000;}
</style>
	<g>
	<path class="logosvg0" d="M150.4,20.1c7.6,0,11.4,4.4,11.4,9.7c0,3.9-2.1,7.5-6.9,8.9L162,51h-8.5l-6.4-11.7h-1.8V51h-7.5V20.1H150.4z    M149.9,26.4h-4.7V34h4.7c2.8,0,4.1-1.5,4.1-3.9C154.1,27.9,152.7,26.4,149.9,26.4z"></path>
		<path class="logosvg0" d="M177.3,51.4c-7.2,0-12.4-4.8-12.4-12.6s5.1-12.6,12.4-12.6c7.2,0,12.2,4.8,12.2,12.2c0,0.7,0,1.5-0.1,2.2h-17   c0.3,3.2,2.2,4.7,4.7,4.7c2.1,0,3.3-1.1,3.9-2.4h8C187.8,47.7,183.4,51.4,177.3,51.4z M172.4,36.3h9.4c0-2.7-2.1-4.2-4.6-4.2   C174.8,32.1,172.9,33.6,172.4,36.3z"></path>
		<path class="logosvg0" d="M204.3,26.1c6.2,0,10.5,3.4,11.8,9.2h-8c-0.6-1.7-1.8-2.8-3.9-2.8c-2.7,0-4.5,2.1-4.5,6.2s1.8,6.2,4.5,6.2   c2.1,0,3.3-1,3.9-2.8h8c-1.3,5.7-5.6,9.2-11.8,9.2c-7.2,0-12.3-4.8-12.3-12.6C192,31,197.1,26.1,204.3,26.1z"></path>
		<path class="logosvg0" d="M219.4,19.8c0-2.3,1.8-4.1,4.5-4.1c2.6,0,4.4,1.8,4.4,4.1c0,2.2-1.8,4-4.4,4C221.2,23.9,219.4,22.1,219.4,19.8   z M220.1,26.4h7.5V51h-7.5V26.4z"></path>
		<path class="logosvg0" d="M248.2,26.1c6,0,10.8,4.8,10.8,12.6c0,7.7-4.8,12.7-10.8,12.7c-3.6,0-6.2-1.7-7.6-3.8v15.1h-7.5V26.4h7.5v3.5   C242,27.8,244.6,26.1,248.2,26.1z M246,32.6c-2.8,0-5.4,2.2-5.4,6.1s2.6,6.1,5.4,6.1c2.9,0,5.4-2.2,5.4-6.1S248.8,32.6,246,32.6z"></path>
		<path class="logosvg0" d="M273.9,51.4c-7.2,0-12.4-4.8-12.4-12.6s5.1-12.6,12.4-12.6c7.2,0,12.2,4.8,12.2,12.2c0,0.7,0,1.5-0.1,2.2h-17   c0.3,3.2,2.2,4.7,4.7,4.7c2.1,0,3.3-1.1,3.9-2.4h8C284.4,47.7,280,51.4,273.9,51.4z M269,36.3h9.4c0-2.7-2.1-4.2-4.6-4.2   C271.4,32.1,269.5,33.6,269,36.3z"></path>
		<path class="logosvg0" d="M290.1,20.1h20.1v6h-12.6v6.5h9.4v5.9h-9.4V51h-7.5V20.1z"></path>
		<path class="logosvg0" d="M313.5,19.8c0-2.3,1.8-4.1,4.5-4.1c2.6,0,4.4,1.8,4.4,4.1c0,2.2-1.8,4-4.4,4C315.3,23.9,313.5,22.1,313.5,19.8   z M314.2,26.4h7.5V51h-7.5V26.4z"></path>
		<path class="logosvg0" d="M344.1,37.7c0-3.3-1.8-5.2-4.7-5.2s-4.7,1.8-4.7,5.2V51h-7.5V26.4h7.5v3.3c1.5-2.1,4.1-3.5,7.4-3.5   c5.7,0,9.5,3.9,9.5,10.5V51h-7.5L344.1,37.7L344.1,37.7z"></path>
		<path class="logosvg0" d="M366.1,26.1c3.3,0,6.1,1.5,7.6,3.7V18.4h7.5V51h-7.5v-3.5c-1.4,2.2-4,3.9-7.6,3.9c-6,0-10.8-4.9-10.8-12.7   C355.3,30.9,360.1,26.1,366.1,26.1z M368.3,32.6c-2.8,0-5.4,2.1-5.4,6s2.6,6.1,5.4,6.1c2.9,0,5.4-2.2,5.4-6.1   C373.7,34.8,371.2,32.6,368.3,32.6z"></path>
		<path class="logosvg0" d="M397.6,51.4c-7.2,0-12.4-4.8-12.4-12.6s5.1-12.6,12.4-12.6c7.2,0,12.2,4.8,12.2,12.2c0,0.7,0,1.5-0.1,2.2h-17   c0.3,3.2,2.2,4.7,4.7,4.7c2.1,0,3.3-1.1,3.9-2.4h8C408.1,47.7,403.7,51.4,397.6,51.4z M392.7,36.3h9.4c0-2.7-2.1-4.2-4.6-4.2   S393.1,33.6,392.7,36.3z"></path>
		<path class="logosvg0" d="M421.3,51h-7.5V26.4h7.5v4.1c1.7-2.6,4.4-4.4,7.7-4.4v8h-2.1c-3.6,0-5.6,1.2-5.6,5.5V51z"></path>
		<path class="logosvg1" d="M135.5,75.3h2.4l4.1,8.5l4.1-8.5h2.4l-5.4,10.4V92h-2.2v-6.3L135.5,75.3z"></path>
		<path class="logosvg1" d="M156.6,92.2c-3.7,0-6.6-2.6-6.6-6.8c0-4.2,2.9-6.8,6.6-6.8c3.7,0,6.6,2.6,6.6,6.8   C163.3,89.6,160.3,92.2,156.6,92.2z M156.6,90.3c2.3,0,4.5-1.6,4.5-4.9s-2.2-4.9-4.4-4.9c-2.3,0-4.4,1.6-4.4,4.9   C152.3,88.7,154.3,90.3,156.6,90.3z"></path>
		<path class="logosvg1" d="M177.9,92h-2.2v-1.9c-0.8,1.4-2.4,2.1-4.2,2.1c-3,0-5.4-1.9-5.4-5.6v-7.7h2.2v7.4c0,2.7,1.5,4,3.7,4   c2.3,0,3.8-1.4,3.8-4.2v-7.2h2.2V92H177.9z"></path>
		<path class="logosvg1" d="M195.1,78.6c3.5,0,6.2,2.6,6.2,6.7s-2.7,6.8-6.2,6.8c-2.4,0-4.1-1.3-4.9-2.6v8.7H188V78.8h2.2v2.4   C191,79.9,192.7,78.6,195.1,78.6z M194.6,80.5c-2.4,0-4.5,1.8-4.5,4.9s2.1,4.9,4.5,4.9s4.5-1.8,4.5-4.9S197.1,80.5,194.6,80.5z"></path>
		<path class="logosvg1" d="M203.9,75.2c0-0.8,0.6-1.5,1.5-1.5c0.8,0,1.4,0.6,1.4,1.5s-0.6,1.5-1.4,1.5C204.5,76.7,203.9,76.1,203.9,75.2z    M204.2,78.8h2.2V92h-2.2V78.8z"></path>
		<path class="logosvg1" d="M215.7,78.6c3.3,0,5.4,1.7,6.1,4.4h-2.4c-0.5-1.6-1.8-2.6-3.7-2.6c-2.4,0-4.2,1.7-4.2,4.9c0,3.3,1.8,5,4.2,5   c1.9,0,3.2-0.9,3.7-2.6h2.4c-0.7,2.6-2.8,4.4-6.1,4.4c-3.7,0-6.4-2.6-6.4-6.8C209.3,81.3,212,78.6,215.7,78.6z"></path>
		<path class="logosvg1" d="M224.7,74.2h2.2v10.4l5.1-5.8h3l-6.2,6.6L235,92h-3l-5.2-5.8V92h-2.2L224.7,74.2L224.7,74.2z"></path>
		<path class="logosvg1" d="M243.9,80.6h-1.7v-1.8h1.7v-3.3h2.2v3.3h3.4v1.8h-3.4v7.8c0,1.3,0.5,1.8,1.8,1.8h1.6V92h-2   c-2.3,0-3.6-1-3.6-3.6V80.6z"></path>
		<path class="logosvg1" d="M252.2,74.2h2.2v6.5c0.9-1.4,2.5-2.1,4.3-2.1c2.9,0,5.3,1.9,5.3,5.6V92h-2.2v-7.4c0-2.7-1.5-4.1-3.7-4.1   c-2.2,0-3.8,1.4-3.8,4.2V92h-2.2V74.2H252.2z"></path>
		<path class="logosvg1" d="M273.2,92.2c-3.7,0-6.5-2.6-6.5-6.8c0-4.2,2.7-6.8,6.5-6.8s6.3,2.7,6.3,6.3c0,0.5,0,0.9-0.1,1.3H269   c0.2,2.7,2,4.1,4.3,4.1c2,0,3.2-1,3.7-2.4h2.4C278.6,90.3,276.5,92.2,273.2,92.2z M269,84.5h8.3c0-2.6-1.9-4-4.2-4   C271,80.5,269.2,81.9,269,84.5z"></path>
		<path class="logosvg1" d="M288.5,75.2c0-0.8,0.6-1.5,1.5-1.5c0.8,0,1.4,0.6,1.4,1.5s-0.6,1.5-1.4,1.5C289.1,76.7,288.5,76.1,288.5,75.2z    M288.8,78.8h2.2V92h-2.2V78.8z"></path>
		<path class="logosvg1" d="M304.4,84.6c0-2.7-1.5-4.1-3.7-4.1s-3.8,1.4-3.8,4.2V92h-2.2V78.8h2.2v1.9c0.9-1.4,2.4-2.1,4.2-2.1   c3,0,5.4,1.9,5.4,5.6V92h-2.2v-7.4H304.4z"></path>
		<path class="logosvg1" d="M315.5,78.6c2.4,0,4.1,1.2,4.9,2.6v-2.4h2.2v13.4c0,3.6-2.4,6.2-6.3,6.2c-3.5,0-5.9-1.8-6.4-4.6h2.2   c0.5,1.6,2,2.7,4.2,2.7c2.3,0,4.1-1.5,4.1-4.3v-2.8c-0.8,1.4-2.5,2.7-4.9,2.7c-3.5,0-6.2-2.8-6.2-6.8   C309.3,81.3,312,78.6,315.5,78.6z M316,80.5c-2.4,0-4.4,1.8-4.4,4.8c0,3.1,2,4.9,4.4,4.9s4.5-1.8,4.5-4.9   C320.4,82.4,318.4,80.5,316,80.5z"></path>
		<path class="logosvg1" d="M328.5,92h-2.2V78.8h2.2V81c0.7-1.5,2.2-2.4,4.2-2.4v2.3h-0.6c-2.1,0-3.7,0.9-3.7,4V92H328.5z"></path>
		<path class="logosvg1" d="M341,92.2c-3.7,0-6.5-2.6-6.5-6.8c0-4.2,2.7-6.8,6.5-6.8s6.3,2.7,6.3,6.3c0,0.5,0,0.9-0.1,1.3h-10.5   c0.2,2.7,2,4.1,4.3,4.1c2,0,3.2-1,3.7-2.4h2.4C346.3,90.3,344.2,92.2,341,92.2z M336.7,84.5h8.3c0-2.6-1.9-4-4.2-4   C338.7,80.5,337,81.9,336.7,84.5z"></path>
		<path class="logosvg1" d="M355.6,78.6c2.1,0,4,1.1,4.9,2.6v-7h2.2V92h-2.2v-2.5c-0.8,1.5-2.5,2.7-4.9,2.7c-3.5,0-6.2-2.8-6.2-6.8   C349.3,81.3,352.1,78.6,355.6,78.6z M356,80.5c-2.4,0-4.4,1.8-4.4,4.8c0,3.1,2,4.9,4.4,4.9s4.5-1.8,4.5-4.9   C360.5,82.4,358.4,80.5,356,80.5z"></path>
		<path class="logosvg1" d="M366,75.2c0-0.8,0.6-1.5,1.5-1.5c0.8,0,1.4,0.6,1.4,1.5s-0.6,1.5-1.4,1.5S366,76.1,366,75.2z M366.4,78.8h2.2   V92h-2.2V78.8z"></path>
		<path class="logosvg1" d="M378,92.2c-3.7,0-6.5-2.6-6.5-6.8c0-4.2,2.7-6.8,6.5-6.8s6.3,2.7,6.3,6.3c0,0.5,0,0.9-0.1,1.3h-10.5   c0.2,2.7,2,4.1,4.3,4.1c2,0,3.2-1,3.7-2.4h2.4C383.4,90.3,381.2,92.2,378,92.2z M373.7,84.5h8.3c0-2.6-1.9-4-4.2-4   C375.7,80.5,374,81.9,373.7,84.5z"></path>
		<path class="logosvg1" d="M396.8,84.6c0-2.7-1.5-4.1-3.7-4.1s-3.8,1.4-3.8,4.2V92h-2.2V78.8h2.2v1.9c0.9-1.4,2.4-2.1,4.2-2.1   c3,0,5.4,1.9,5.4,5.6V92h-2.2v-7.4H396.8z"></path>
		<path class="logosvg1" d="M403,80.6h-1.7v-1.8h1.7v-3.3h2.2v3.3h3.4v1.8h-3.4v7.8c0,1.3,0.5,1.8,1.8,1.8h1.6V92h-2c-2.3,0-3.6-1-3.6-3.6   V80.6z"></path>
		<path class="logosvg1" d="M415.9,92.2c-3.1,0-5.2-1.7-5.4-4.1h2.3c0.1,1.3,1.2,2.2,3.1,2.2c1.7,0,2.7-0.9,2.7-1.9c0-2.9-7.8-1.2-7.8-6.1   c0-2,1.9-3.7,4.8-3.7s4.8,1.6,5,4.1h-2.2c-0.1-1.3-1.1-2.3-2.9-2.3c-1.6,0-2.6,0.8-2.6,1.8c0,3.1,7.6,1.4,7.7,6.1   C420.7,90.6,418.8,92.2,415.9,92.2z"></path>
		<path class="logosvg1" d="M425.5,92.1c-0.8,0-1.5-0.6-1.5-1.5c0-0.8,0.6-1.5,1.5-1.5c0.8,0,1.4,0.6,1.4,1.5   C427,91.5,426.3,92.1,425.5,92.1z M424.3,75.3h2.4l-0.3,12h-1.8L424.3,75.3z"></path>
		<g>
		<defs>
			<rect id="SVGID_1_" width="114" height="114"></rect>
		</defs>
			<clipPath id="SVGID_00000037665553019145438320000008510216187599443637_">
			<use xlink:href="#SVGID_1_" style="overflow:visible;"></use>
		</clipPath>
			<g id="Group_10-2" style="clip-path:url(#SVGID_00000037665553019145438320000008510216187599443637_);">
			<path id="Path_4" class="logosvg3" d="M86.3,0H27.6C12.2,0.1-0.1,12.7,0,28v57.8c-0.1,15.4,12.2,27.9,27.6,28h58.7     c5.1,0,10.2-1.4,14.5-4.2L82.6,91.5c-19.1,14.1-46,10.1-60.1-8.9s-10.1-46,8.9-60.1s46-10.1,60.1,8.9c11.3,15.2,11.3,36,0,51.2     l18.2,18.2c2.8-4.5,4.2-9.6,4.2-14.9V28C114,12.7,101.7,0.1,86.3,0"></path>
				<path id="Path_5" class="logosvg3" d="M35.5,35.5c-11.8,11.8-11.8,31,0,42.9c7.7,7.7,18.9,10.7,29.4,7.8L51.6,72.9     c-1.3,0.9-2.9,1.3-4.4,1.1c-1.9-0.2-3.7-1.3-4.7-3L37,62.3c-0.2-0.2-0.2-0.5-0.2-0.8s0.2-0.5,0.4-0.7s0.5-0.3,0.8-0.3     s0.6,0.2,0.8,0.4l7.5,7.4l0.9-0.9l-6.8-8.6c-0.2-0.2-0.2-0.4-0.2-0.7c0-0.5,0.5-1,1-0.9c0.2,0,0.4,0.1,0.6,0.2l8.6,6.8l0.9-0.9     l-7.5-7.5c-0.2-0.2-0.3-0.5-0.3-0.8c0-0.6,0.4-1.1,1-1.2c0.3,0,0.6,0,0.8,0.2l8.7,5.5c1.7,1,2.8,2.7,3,4.7     c0.1,1.6-0.3,3.1-1.1,4.5l15.2,15.2c5.4-2.8,9.8-7.1,12.7-12.4l-14-13.7c-0.9,0.7-2,1.1-3.1,1.3c-3,0.3-6-1-8-3.3     c-5-5-6.1-12-2.4-15.7S67,37.5,72,42.5c1.2,1,2.1,2.2,2.6,3.6c0.6,1.4,0.8,2.9,0.7,4.3c-0.2,1.1-0.6,2.2-1.3,3.1l12,12     c4.8-16.1-4.4-32.9-20.4-37.7C55,24.7,43.4,27.6,35.5,35.5"></path>
		</g>
	</g>
</g>
</svg>
